<?xml version="1.0" encoding="UTF-8"?>
<svg id="Layer_2" data-name="Layer 2" xmlns="http://www.w3.org/2000/svg" xmlns:xlink="http://www.w3.org/1999/xlink" viewBox="0 0 376.74 376.24">
  <defs>
    <style>
      .cls-1 {
        fill: none;
      }

      .cls-2 {
        fill: #bfbfbf;
      }

      .cls-3 {
        fill: #8c8c8c;
      }

      .cls-4 {
        fill: gray;
      }

      .cls-5 {
        clip-path: url(#clippath);
      }
    </style>
    <clipPath id="clippath">
      <rect class="cls-1" x="40.8" y="40.62" width="295" height="295"/>
    </clipPath>
  </defs>
  <g id="patterns">
    <g id="living_pattern" data-name="living pattern">
      <g class="cls-5">
        <g>
          <g>
            <g>
              <path class="cls-3" d="M188.12,28.58s-1.12,1.12-3.4,3.4c-2.28,2.28,0,4.57,0,4.57l3.4-3.4h0s0-4.57,0-4.57h0Z"/>
              <path class="cls-3" d="M188.12,48.09l-3.4-3.4s-2.28,2.3,0,4.57c2.28,2.28,3.4,3.4,3.4,3.4h0v-4.57h0Z"/>
              <path class="cls-3" d="M184.04,44.01l-3.4-3.4,3.39-3.39s-2.29-2.28-4.57,0l-3.39,3.39,3.4,3.4c2.28,2.28,4.57,0,4.57,0Z"/>
              <path class="cls-3" d="M180.64,26.28c-2.28,2.28,0,4.57,0,4.57l7.47-7.48v-4.57s-5.19,5.19-7.47,7.48Z"/>
              <path class="cls-3" d="M180.64,50.38s-2.28,2.29,0,4.57,7.47,7.47,7.47,7.48v-4.57l-7.47-7.48Z"/>
              <path class="cls-3" d="M178.36,33.14s-2.3-2.28-4.57,0c-2.28,2.28-7.48,7.48-7.48,7.48,0,0,5.19,5.19,7.48,7.48,2.28,2.28,4.57,0,4.57,0l-7.48-7.48,7.48-7.48Z"/>
            </g>
            <g>
              <path class="cls-3" d="M191.51,31.97c-2.28-2.28-3.39-3.39-3.39-3.39v4.57l3.39,3.39s2.28-2.29,0-4.57Z"/>
              <path class="cls-3" d="M191.51,44.69l-3.39,3.39v4.57s1.11-1.11,3.39-3.39c2.28-2.28,0-4.57,0-4.57Z"/>
              <path class="cls-3" d="M196.77,37.23c-2.28-2.28-4.57,0-4.57,0l3.39,3.39-3.4,3.4s2.3,2.28,4.57,0c2.28-2.28,3.4-3.4,3.4-3.4,0,0-1.11-1.11-3.39-3.39Z"/>
              <path class="cls-3" d="M195.6,30.86s2.28-2.3,0-4.57c-2.28-2.28-7.48-7.48-7.48-7.48h0v4.57h0s7.48,7.48,7.48,7.48Z"/>
              <path class="cls-3" d="M195.6,54.95c2.28-2.28,0-4.57,0-4.57l-7.48,7.48h0s0,4.57,0,4.57h0s5.2-5.2,7.48-7.48Z"/>
              <path class="cls-3" d="M197.88,33.14l7.48,7.48-7.48,7.48s2.29,2.28,4.57,0c2.28-2.28,7.48-7.48,7.48-7.48,0,0-5.2-5.2-7.48-7.48-2.28-2.28-4.57,0-4.57,0Z"/>
            </g>
          </g>
          <g>
            <g>
              <path class="cls-2" d="M188.12,0l-1.62,1.62c-1.1,1.1.01,2.64.01,2.64,0,0-1.38-1.27-2.58-.07-.77.77-.87.87-1.22,1.22,3.17,2.08,5.41,5.79,5.41,9.86V0Z"/>
              <path class="cls-2" d="M188.12,0s.93.93,1.62,1.62c1.1,1.1-.01,2.64-.01,2.64,0,0,1.38-1.27,2.58-.07.77.77.87.87,1.22,1.22-3.17,2.08-5.41,5.79-5.41,9.86V0Z"/>
            </g>
            <g>
              <path class="cls-2" d="M188.12,81.24s.93-.93,1.62-1.62c1.1-1.1-.01-2.64-.01-2.64,0,0,1.38,1.27,2.58.07.77-.77.87-.87,1.22-1.22-3.17-2.08-5.41-5.79-5.41-9.86v15.27Z"/>
              <path class="cls-2" d="M188.12,81.24s-.93-.93-1.62-1.62c-1.1-1.1.01-2.64.01-2.64,0,0-1.38,1.27-2.58.07-.77-.77-.87-.87-1.22-1.22,3.17-2.08,5.41-5.79,5.41-9.86v15.27Z"/>
            </g>
          </g>
          <g>
            <g>
              <path class="cls-2" d="M147.5,40.62s.93.93,1.62,1.62c1.1,1.1,2.64-.01,2.64-.01,0,0-1.27,1.38-.07,2.58.77.77.87.87,1.22,1.22,2.08-3.17,5.79-5.41,9.86-5.41h-15.27Z"/>
              <path class="cls-2" d="M147.5,40.62l1.62-1.62c1.1-1.1,2.64.01,2.64.01,0,0-1.27-1.38-.07-2.58.77-.77.87-.87,1.22-1.22,2.08,3.17,5.79,5.41,9.86,5.41h-15.27Z"/>
            </g>
            <g>
              <path class="cls-2" d="M228.74,40.62s-.93-.93-1.62-1.62c-1.1-1.1-2.64.01-2.64.01,0,0,1.27-1.38.07-2.58-.77-.77-.87-.87-1.22-1.22-2.08,3.17-5.79,5.41-9.86,5.41h15.27Z"/>
              <path class="cls-2" d="M228.74,40.62l-1.62,1.62c-1.1,1.1-2.64-.01-2.64-.01,0,0,1.27,1.38.07,2.58-.77.77-.87.87-1.22,1.22-2.08-3.17-5.79-5.41-9.86-5.41h15.27Z"/>
            </g>
          </g>
        </g>
        <g>
          <g>
            <g>
              <path class="cls-3" d="M188.12,323.58s-1.12,1.12-3.4,3.4c-2.28,2.28,0,4.57,0,4.57l3.4-3.4h0s0-4.57,0-4.57h0Z"/>
              <path class="cls-3" d="M188.12,343.09l-3.4-3.4s-2.28,2.3,0,4.57c2.28,2.28,3.4,3.4,3.4,3.4h0v-4.57h0Z"/>
              <path class="cls-3" d="M184.04,339.01l-3.4-3.4,3.39-3.39s-2.29-2.28-4.57,0l-3.39,3.39,3.4,3.4c2.28,2.28,4.57,0,4.57,0Z"/>
              <path class="cls-3" d="M180.64,321.28c-2.28,2.28,0,4.57,0,4.57l7.47-7.48v-4.57s-5.19,5.19-7.47,7.48Z"/>
              <path class="cls-3" d="M180.64,345.38s-2.28,2.29,0,4.57,7.47,7.47,7.47,7.48v-4.57l-7.47-7.48Z"/>
              <path class="cls-3" d="M178.36,328.14s-2.3-2.28-4.57,0c-2.28,2.28-7.48,7.48-7.48,7.48,0,0,5.19,5.19,7.48,7.48,2.28,2.28,4.57,0,4.57,0l-7.48-7.48,7.48-7.48Z"/>
            </g>
            <g>
              <path class="cls-3" d="M191.51,326.97c-2.28-2.28-3.39-3.39-3.39-3.39v4.57l3.39,3.39s2.28-2.29,0-4.57Z"/>
              <path class="cls-3" d="M191.51,339.69l-3.39,3.39v4.57s1.11-1.11,3.39-3.39c2.28-2.28,0-4.57,0-4.57Z"/>
              <path class="cls-3" d="M196.77,332.23c-2.28-2.28-4.57,0-4.57,0l3.39,3.39-3.4,3.4s2.3,2.28,4.57,0c2.28-2.28,3.4-3.4,3.4-3.4,0,0-1.11-1.11-3.39-3.39Z"/>
              <path class="cls-3" d="M195.6,325.86s2.28-2.3,0-4.57c-2.28-2.28-7.48-7.48-7.48-7.48h0v4.57h0s7.48,7.48,7.48,7.48Z"/>
              <path class="cls-3" d="M195.6,349.95c2.28-2.28,0-4.57,0-4.57l-7.48,7.48h0s0,4.57,0,4.57h0s5.2-5.2,7.48-7.48Z"/>
              <path class="cls-3" d="M197.88,328.14l7.48,7.48-7.48,7.48s2.29,2.28,4.57,0c2.28-2.28,7.48-7.48,7.48-7.48,0,0-5.2-5.2-7.48-7.48-2.28-2.28-4.57,0-4.57,0Z"/>
            </g>
          </g>
          <g>
            <g>
              <path class="cls-2" d="M188.12,295l-1.62,1.62c-1.1,1.1.01,2.64.01,2.64,0,0-1.38-1.27-2.58-.07-.77.77-.87.87-1.22,1.22,3.17,2.08,5.41,5.79,5.41,9.86v-15.27Z"/>
              <path class="cls-2" d="M188.12,295s.93.93,1.62,1.62c1.1,1.1-.01,2.64-.01,2.64,0,0,1.38-1.27,2.58-.07.77.77.87.87,1.22,1.22-3.17,2.08-5.41,5.79-5.41,9.86v-15.27Z"/>
            </g>
            <g>
              <path class="cls-2" d="M188.12,376.24s.93-.93,1.62-1.62c1.1-1.1-.01-2.64-.01-2.64,0,0,1.38,1.27,2.58.07.77-.77.87-.87,1.22-1.22-3.17-2.08-5.41-5.79-5.41-9.86v15.27Z"/>
              <path class="cls-2" d="M188.12,376.24s-.93-.93-1.62-1.62c-1.1-1.1.01-2.64.01-2.64,0,0-1.38,1.27-2.58.07-.77-.77-.87-.87-1.22-1.22,3.17-2.08,5.41-5.79,5.41-9.86v15.27Z"/>
            </g>
          </g>
          <g>
            <g>
              <path class="cls-2" d="M147.5,335.62s.93.93,1.62,1.62c1.1,1.1,2.64-.01,2.64-.01,0,0-1.27,1.38-.07,2.58.77.77.87.87,1.22,1.22,2.08-3.17,5.79-5.41,9.86-5.41h-15.27Z"/>
              <path class="cls-2" d="M147.5,335.62l1.62-1.62c1.1-1.1,2.64.01,2.64.01,0,0-1.27-1.38-.07-2.58.77-.77.87-.87,1.22-1.22,2.08,3.17,5.79,5.41,9.86,5.41h-15.27Z"/>
            </g>
            <g>
              <path class="cls-2" d="M228.74,335.62s-.93-.93-1.62-1.62c-1.1-1.1-2.64.01-2.64.01,0,0,1.27-1.38.07-2.58-.77-.77-.87-.87-1.22-1.22-2.08,3.17-5.79,5.41-9.86,5.41h15.27Z"/>
              <path class="cls-2" d="M228.74,335.62l-1.62,1.62c-1.1,1.1-2.64-.01-2.64-.01,0,0,1.27,1.38.07,2.58-.77.77-.87.87-1.22,1.22-2.08-3.17-5.79-5.41-9.86-5.41h15.27Z"/>
            </g>
          </g>
        </g>
        <g>
          <g>
            <g>
              <path class="cls-3" d="M40.62,176.2s-1.12,1.12-3.4,3.4c-2.28,2.28,0,4.57,0,4.57l3.4-3.4h0s0-4.57,0-4.57h0Z"/>
              <path class="cls-3" d="M40.62,195.71l-3.4-3.4s-2.28,2.3,0,4.57c2.28,2.28,3.4,3.4,3.4,3.4h0v-4.57h0Z"/>
              <path class="cls-3" d="M36.54,191.64l-3.4-3.4,3.39-3.39s-2.29-2.28-4.57,0l-3.39,3.39,3.4,3.4c2.28,2.28,4.57,0,4.57,0Z"/>
              <path class="cls-3" d="M33.14,173.91c-2.28,2.28,0,4.57,0,4.57l7.47-7.48v-4.57s-5.19,5.19-7.47,7.48Z"/>
              <path class="cls-3" d="M33.14,198s-2.28,2.29,0,4.57,7.47,7.47,7.47,7.48v-4.57l-7.47-7.48Z"/>
              <path class="cls-3" d="M30.86,180.76s-2.3-2.28-4.57,0c-2.28,2.28-7.48,7.48-7.48,7.48,0,0,5.19,5.19,7.48,7.48,2.28,2.28,4.57,0,4.57,0l-7.48-7.48,7.48-7.48Z"/>
            </g>
            <g>
              <path class="cls-3" d="M44.01,179.59c-2.28-2.28-3.39-3.39-3.39-3.39v4.57l3.39,3.39s2.28-2.29,0-4.57Z"/>
              <path class="cls-3" d="M44.01,192.32l-3.39,3.39v4.57s1.11-1.11,3.39-3.39c2.28-2.28,0-4.57,0-4.57Z"/>
              <path class="cls-3" d="M49.27,184.85c-2.28-2.28-4.57,0-4.57,0l3.39,3.39-3.4,3.4s2.3,2.28,4.57,0c2.28-2.28,3.4-3.4,3.4-3.4,0,0-1.11-1.11-3.39-3.39Z"/>
              <path class="cls-3" d="M48.1,178.48s2.28-2.3,0-4.57c-2.28-2.28-7.48-7.48-7.48-7.48h0v4.57h0s7.48,7.48,7.48,7.48Z"/>
              <path class="cls-3" d="M48.1,202.58c2.28-2.28,0-4.57,0-4.57l-7.48,7.48h0s0,4.57,0,4.57h0s5.2-5.2,7.48-7.48Z"/>
              <path class="cls-3" d="M50.38,180.76l7.48,7.48-7.48,7.48s2.29,2.28,4.57,0c2.28-2.28,7.48-7.48,7.48-7.48,0,0-5.2-5.2-7.48-7.48-2.28-2.28-4.57,0-4.57,0Z"/>
            </g>
          </g>
          <g>
            <g>
              <path class="cls-2" d="M40.62,147.62l-1.62,1.62c-1.1,1.1.01,2.64.01,2.64,0,0-1.38-1.27-2.58-.07-.77.77-.87.87-1.22,1.22,3.17,2.08,5.41,5.79,5.41,9.86v-15.27Z"/>
              <path class="cls-2" d="M40.62,147.62s.93.93,1.62,1.62c1.1,1.1-.01,2.64-.01,2.64,0,0,1.38-1.27,2.58-.07.77.77.87.87,1.22,1.22-3.17,2.08-5.41,5.79-5.41,9.86v-15.27Z"/>
            </g>
            <g>
              <path class="cls-2" d="M40.62,228.86s.93-.93,1.62-1.62c1.1-1.1-.01-2.64-.01-2.64,0,0,1.38,1.27,2.58.07.77-.77.87-.87,1.22-1.22-3.17-2.08-5.41-5.79-5.41-9.86v15.27Z"/>
              <path class="cls-2" d="M40.62,228.86s-.93-.93-1.62-1.62c-1.1-1.1.01-2.64.01-2.64,0,0-1.38,1.27-2.58.07-.77-.77-.87-.87-1.22-1.22,3.17-2.08,5.41-5.79,5.41-9.86v15.27Z"/>
            </g>
          </g>
          <g>
            <g>
              <path class="cls-2" d="M0,188.24s.93.93,1.62,1.62c1.1,1.1,2.64-.01,2.64-.01,0,0-1.27,1.38-.07,2.58.77.77.87.87,1.22,1.22,2.08-3.17,5.79-5.41,9.86-5.41H0Z"/>
              <path class="cls-2" d="M0,188.24l1.62-1.62c1.1-1.1,2.64.01,2.64.01,0,0-1.27-1.38-.07-2.58.77-.77.87-.87,1.22-1.22,2.08,3.17,5.79,5.41,9.86,5.41H0Z"/>
            </g>
            <g>
              <path class="cls-2" d="M81.24,188.24s-.93-.93-1.62-1.62c-1.1-1.1-2.64.01-2.64.01,0,0,1.27-1.38.07-2.58-.77-.77-.87-.87-1.22-1.22-2.08,3.17-5.79,5.41-9.86,5.41h15.27Z"/>
              <path class="cls-2" d="M81.24,188.24l-1.62,1.62c-1.1,1.1-2.64-.01-2.64-.01,0,0,1.27,1.38.07,2.58-.77.77-.87.87-1.22,1.22-2.08-3.17-5.79-5.41-9.86-5.41h15.27Z"/>
            </g>
          </g>
        </g>
        <g>
          <g>
            <g>
              <path class="cls-3" d="M336.12,176.2s-1.12,1.12-3.4,3.4c-2.28,2.28,0,4.57,0,4.57l3.4-3.4h0s0-4.57,0-4.57h0Z"/>
              <path class="cls-3" d="M336.12,195.71l-3.4-3.4s-2.28,2.3,0,4.57c2.28,2.28,3.4,3.4,3.4,3.4h0v-4.57h0Z"/>
              <path class="cls-3" d="M332.04,191.64l-3.4-3.4,3.39-3.39s-2.29-2.28-4.57,0l-3.39,3.39,3.4,3.4c2.28,2.28,4.57,0,4.57,0Z"/>
              <path class="cls-3" d="M328.64,173.91c-2.28,2.28,0,4.57,0,4.57l7.47-7.48v-4.57s-5.19,5.19-7.47,7.48Z"/>
              <path class="cls-3" d="M328.64,198s-2.28,2.29,0,4.57,7.47,7.47,7.47,7.48v-4.57l-7.47-7.48Z"/>
              <path class="cls-3" d="M326.36,180.76s-2.3-2.28-4.57,0c-2.28,2.28-7.48,7.48-7.48,7.48,0,0,5.19,5.19,7.48,7.48,2.28,2.28,4.57,0,4.57,0l-7.48-7.48,7.48-7.48Z"/>
            </g>
            <g>
              <path class="cls-3" d="M339.51,179.59c-2.28-2.28-3.39-3.39-3.39-3.39v4.57l3.39,3.39s2.28-2.29,0-4.57Z"/>
              <path class="cls-3" d="M339.51,192.32l-3.39,3.39v4.57s1.11-1.11,3.39-3.39c2.28-2.28,0-4.57,0-4.57Z"/>
              <path class="cls-3" d="M344.77,184.85c-2.28-2.28-4.57,0-4.57,0l3.39,3.39-3.4,3.4s2.3,2.28,4.57,0c2.28-2.28,3.4-3.4,3.4-3.4,0,0-1.11-1.11-3.39-3.39Z"/>
              <path class="cls-3" d="M343.6,178.48s2.28-2.3,0-4.57c-2.28-2.28-7.48-7.48-7.48-7.48h0v4.57h0s7.48,7.48,7.48,7.48Z"/>
              <path class="cls-3" d="M343.6,202.58c2.28-2.28,0-4.57,0-4.57l-7.48,7.48h0s0,4.57,0,4.57h0s5.2-5.2,7.48-7.48Z"/>
              <path class="cls-3" d="M345.88,180.76l7.48,7.48-7.48,7.48s2.29,2.28,4.57,0c2.28-2.28,7.48-7.48,7.48-7.48,0,0-5.2-5.2-7.48-7.48-2.28-2.28-4.57,0-4.57,0Z"/>
            </g>
          </g>
          <g>
            <g>
              <path class="cls-2" d="M336.12,147.62l-1.62,1.62c-1.1,1.1.01,2.64.01,2.64,0,0-1.38-1.27-2.58-.07-.77.77-.87.87-1.22,1.22,3.17,2.08,5.41,5.79,5.41,9.86v-15.27Z"/>
              <path class="cls-2" d="M336.12,147.62s.93.93,1.62,1.62c1.1,1.1-.01,2.64-.01,2.64,0,0,1.38-1.27,2.58-.07.77.77.87.87,1.22,1.22-3.17,2.08-5.41,5.79-5.41,9.86v-15.27Z"/>
            </g>
            <g>
              <path class="cls-2" d="M336.12,228.86s.93-.93,1.62-1.62c1.1-1.1-.01-2.64-.01-2.64,0,0,1.38,1.27,2.58.07.77-.77.87-.87,1.22-1.22-3.17-2.08-5.41-5.79-5.41-9.86v15.27Z"/>
              <path class="cls-2" d="M336.12,228.86s-.93-.93-1.62-1.62c-1.1-1.1.01-2.64.01-2.64,0,0-1.38,1.27-2.58.07-.77-.77-.87-.87-1.22-1.22,3.17-2.08,5.41-5.79,5.41-9.86v15.27Z"/>
            </g>
          </g>
          <g>
            <g>
              <path class="cls-2" d="M295.5,188.24s.93.93,1.62,1.62c1.1,1.1,2.64-.01,2.64-.01,0,0-1.27,1.38-.07,2.58.77.77.87.87,1.22,1.22,2.08-3.17,5.79-5.41,9.86-5.41h-15.27Z"/>
              <path class="cls-2" d="M295.5,188.24l1.62-1.62c1.1-1.1,2.64.01,2.64.01,0,0-1.27-1.38-.07-2.58.77-.77.87-.87,1.22-1.22,2.08,3.17,5.79,5.41,9.86,5.41h-15.27Z"/>
            </g>
            <g>
              <path class="cls-2" d="M376.74,188.24s-.93-.93-1.62-1.62c-1.1-1.1-2.64.01-2.64.01,0,0,1.27-1.38.07-2.58-.77-.77-.87-.87-1.22-1.22-2.08,3.17-5.79,5.41-9.86,5.41h15.27Z"/>
              <path class="cls-2" d="M376.74,188.24l-1.62,1.62c-1.1,1.1-2.64-.01-2.64-.01,0,0,1.27,1.38.07,2.58-.77.77-.87.87-1.22,1.22-2.08-3.17-5.79-5.41-9.86-5.41h15.27Z"/>
            </g>
          </g>
        </g>
        <g>
          <g>
            <g>
              <path class="cls-4" d="M190.21,132.62l3.77-3.77.41.43c1.68,1.77,3.9,2.94,6.31,3.34h-10.48Z"/>
              <path class="cls-4" d="M175.54,132.62h0c2.41-.39,4.63-1.57,6.31-3.34l.41-.43,3.77,3.77h-10.48Z"/>
            </g>
            <path class="cls-4" d="M191.88,126.76l-3.77,3.77-3.77-3.77.43-.41c1.77-1.68,2.94-3.9,3.34-6.31h0c.39,2.41,1.57,4.63,3.34,6.31l.43.41Z"/>
          </g>
          <g>
            <g>
              <path class="cls-4" d="M190.21,132.62l3.77,3.77.41-.43c1.68-1.77,3.9-2.94,6.31-3.34h-10.48Z"/>
              <path class="cls-4" d="M175.54,132.62h0c2.41.39,4.63,1.57,6.31,3.34l.41.43,3.77-3.77h-10.48Z"/>
            </g>
            <path class="cls-4" d="M191.88,138.48l-3.77-3.77-3.77,3.77.43.41c1.77,1.68,2.94,3.9,3.34,6.31h0c.39-2.41,1.57-4.63,3.34-6.31l.43-.41Z"/>
          </g>
        </g>
        <g>
          <g>
            <g>
              <path class="cls-4" d="M190.21,243.87l3.77-3.77.41.43c1.68,1.77,3.9,2.94,6.31,3.34h-10.48Z"/>
              <path class="cls-4" d="M175.54,243.87h0c2.41-.39,4.63-1.57,6.31-3.34l.41-.43,3.77,3.77h-10.48Z"/>
            </g>
            <path class="cls-4" d="M191.88,238.01l-3.77,3.77-3.77-3.77.43-.41c1.77-1.68,2.94-3.9,3.34-6.31h0c.39,2.41,1.57,4.63,3.34,6.31l.43.41Z"/>
          </g>
          <g>
            <g>
              <path class="cls-4" d="M190.21,243.87l3.77,3.77.41-.43c1.68-1.77,3.9-2.94,6.31-3.34h-10.48Z"/>
              <path class="cls-4" d="M175.54,243.87h0c2.41.39,4.63,1.57,6.31,3.34l.41.43,3.77-3.77h-10.48Z"/>
            </g>
            <path class="cls-4" d="M191.88,249.73l-3.77-3.77-3.77,3.77.43.41c1.77,1.68,2.94,3.9,3.34,6.31h0c.39-2.41,1.57-4.63,3.34-6.31l.43-.41Z"/>
          </g>
        </g>
        <g>
          <g>
            <g>
              <path class="cls-4" d="M134.96,188.12l3.77-3.77.41.43c1.68,1.77,3.9,2.94,6.31,3.34h-10.48Z"/>
              <path class="cls-4" d="M120.29,188.12h0c2.41-.39,4.63-1.57,6.31-3.34l.41-.43,3.77,3.77h-10.48Z"/>
            </g>
            <path class="cls-4" d="M136.63,182.26l-3.77,3.77-3.77-3.77.43-.41c1.77-1.68,2.94-3.9,3.34-6.31h0c.39,2.41,1.57,4.63,3.34,6.31l.43.41Z"/>
          </g>
          <g>
            <g>
              <path class="cls-4" d="M134.96,188.12l3.77,3.77.41-.43c1.68-1.77,3.9-2.94,6.31-3.34h-10.48Z"/>
              <path class="cls-4" d="M120.29,188.12h0c2.41.39,4.63,1.57,6.31,3.34l.41.43,3.77-3.77h-10.48Z"/>
            </g>
            <path class="cls-4" d="M136.63,193.98l-3.77-3.77-3.77,3.77.43.41c1.77,1.68,2.94,3.9,3.34,6.31h0c.39-2.41,1.57-4.63,3.34-6.31l.43-.41Z"/>
          </g>
        </g>
        <g>
          <g>
            <g>
              <path class="cls-4" d="M245.46,188.12l3.77-3.77.41.43c1.68,1.77,3.9,2.94,6.31,3.34h-10.48Z"/>
              <path class="cls-4" d="M230.79,188.12h0c2.41-.39,4.63-1.57,6.31-3.34l.41-.43,3.77,3.77h-10.48Z"/>
            </g>
            <path class="cls-4" d="M247.13,182.26l-3.77,3.77-3.77-3.77.43-.41c1.77-1.68,2.94-3.9,3.34-6.31h0c.39,2.41,1.57,4.63,3.34,6.31l.43.41Z"/>
          </g>
          <g>
            <g>
              <path class="cls-4" d="M245.46,188.12l3.77,3.77.41-.43c1.68-1.77,3.9-2.94,6.31-3.34h-10.48Z"/>
              <path class="cls-4" d="M230.79,188.12h0c2.41.39,4.63,1.57,6.31,3.34l.41.43,3.77-3.77h-10.48Z"/>
            </g>
            <path class="cls-4" d="M247.13,193.98l-3.77-3.77-3.77,3.77.43.41c1.77,1.68,2.94,3.9,3.34,6.31h0c.39-2.41,1.57-4.63,3.34-6.31l.43-.41Z"/>
          </g>
        </g>
        <g>
          <g>
            <path class="cls-4" d="M65.06,64.11s0-2.21,0-3.84c0-2.6-3.13-3.1-3.13-3.1,0,0,3.13-.13,3.13-2.97,0-1.82,0-2.06,0-2.87-6.2,1.29-13.22-.44-18.04-5.26l18.04,18.03Z"/>
            <path class="cls-4" d="M65.06,64.11s-2.21,0-3.84,0c-2.6,0-3.1-3.13-3.1-3.13,0,0-.13,3.13-2.97,3.13-1.82,0-2.06,0-2.87,0,1.29-6.2-.44-13.22-5.26-18.04l18.03,18.04Z"/>
          </g>
          <rect class="cls-4" x="37.12" y="36.49" width="9" height="9"/>
          <g>
            <g>
              <g>
                <path class="cls-2" d="M143.19,140.46c-.92-.89-2.07-1.59-3.29-2.21-1.43-.72-2.98-1.34-4.21-2.25-.48-.36-1.17-.88-1.52-1.44-.16-.05-.32-.1-.48-.15-.18-.02-.37-.03-.55-.05-.12,1.01.92,1.89,1.9,2.42,1.9,1,4.21,1.63,6.02,2.79,1.88,1.11,4.46,4.06,1.26,5.24-.31.13-.65.22-.97.2-.48-.04-1.5-.46-.46-1.19.31-.21.67-.19.93-.49.14-.16.22-.35.21-.55,0-.29-.25-.6-.51-.77-.47-.29-1.25-.19-1.76.05-.56.26-.98.73-1.16,1.23-.08.22-.11.44-.11.66.08,1.54,1.61,2.41,3.23,2.29,1.68-.14,3.31-1.46,3.22-3.03-.07-1.03-.96-2.01-1.76-2.77Z"/>
                <path class="cls-2" d="M141.14,139.29c-.09-.06-.19-.11-.28-.17.09.05.19.11.28.17Z"/>
                <path class="cls-2" d="M151.69,143.01c-.24-.28-1.38-1.25-1.36-1.55.03-.28.94-.68,1.14-.96.43-.64.49-1.52.14-2.3-.27-.61-.85-1.19-1.62-1.49-.1-.04-.21-.07-.31-.07-.27.02-.28.29-.28.5-.04,2.12-3.41,2.09-5.36,1.52-3.77-1.23-7.75-1.9-9.82-4.38-2.38-2.62-.2-7.38,6.05-7.38.8.01,1.63.14,2.25.47.62.33.97.89.69,1.33-.33.52-1.31.74-1.81,1.21-.89.85.28,2.16,1.79,2.34,1.52.18,3.03-.56,3.36-1.57.33-1-.41-2.16-1.64-2.98-3.2-2.2-9.08-1.53-11.82.83-.4.33-.76.68-1.06,1.05-.61.75-.98,1.57-1.03,2.36-.12,2.07,1.69,3.72,3.75,4.84,2.82,1.49,6.08,2.44,9.34,3.58,1.72.79,3.22,1.89,4.09,3.39.44.75.83,1.54,1,2.36.16.72-.28,2.37-1.68,1.84-.23-.08-.45.1-.36.28.51,1.06,1.55,1.94,3.13,1.98.42,0,.84-.06,1.23-.21.34-.13.58-.42.88-.53.6.84,1.53,1.52,2.13,2.41.29.43.93.89,1.11.22.84-3.16-1.59-6.55-3.94-9.1Z"/>
              </g>
              <g>
                <path class="cls-2" d="M134.33,129.32c-1.9-1-4.21-1.63-6.02-2.79-1.88-1.11-4.46-4.06-1.26-5.24.31-.13.65-.22.97-.2.48.04,1.5.46.46,1.19-.31.21-.67.19-.93.49-.14.16-.22.35-.21.55,0,.29.25.6.51.77.47.29,1.25.19,1.76-.05.56-.26.98-.73,1.16-1.23.08-.22.11-.44.11-.66-.08-1.54-1.61-2.41-3.23-2.29-1.68.14-3.31,1.46-3.22,3.03.07,1.03.96,2.01,1.76,2.77.92.89,2.07,1.59,3.29,2.21,1.43.72,2.98,1.34,4.21,2.25.48.36,1.17.88,1.52,1.44.16.05.32.1.48.15.18.02.37.03.55.05.12-1.01-.92-1.89-1.9-2.42Z"/>
                <path class="cls-2" d="M128.24,126.82c.09.06.19.11.28.17-.09-.05-.19-.11-.28-.17Z"/>
                <path class="cls-2" d="M138.38,134.16c.12-2.07-1.69-3.72-3.75-4.84-2.82-1.49-6.08-2.44-9.34-3.58-1.72-.79-3.22-1.89-4.09-3.39-.44-.75-.83-1.54-1-2.36-.16-.72.28-2.37,1.68-1.84.23.08.45-.1.37-.28-.51-1.06-1.55-1.94-3.13-1.98-.42,0-.84.06-1.23.21-.34.13-.58.42-.88.53-.6-.84-1.53-1.52-2.13-2.41-.29-.43-.93-.89-1.11-.22-.84,3.16,1.59,6.55,3.94,9.1.24.28,1.38,1.25,1.36,1.55-.03.28-.94.68-1.14.96-.43.64-.49,1.52-.14,2.3.27.61.85,1.19,1.62,1.49.1.04.21.07.31.07.27-.02.28-.29.28-.5.04-2.12,3.41-2.09,5.36-1.52,3.77,1.23,7.75,1.9,9.82,4.38,2.38,2.62.2,7.38-6.05,7.38-.8-.01-1.63-.14-2.25-.47-.62-.33-.97-.89-.69-1.33.33-.52,1.31-.74,1.81-1.21.89-.85-.28-2.16-1.79-2.34-1.52-.18-3.03.56-3.36,1.57-.33,1,.41,2.16,1.64,2.98,3.2,2.2,9.08,1.53,11.82-.83.4-.33.76-.68,1.06-1.05.61-.75.98-1.57,1.03-2.36Z"/>
              </g>
            </g>
            <g>
              <g>
                <path class="cls-2" d="M96.97,98.67c-.57-.33-1.12-1-1.49-1.46-.95-1.2-1.62-2.73-2.4-4.13-.66-1.2-1.4-2.31-2.32-3.21-.79-.77-1.8-1.63-2.83-1.66-1.58-.04-2.84,1.65-2.92,3.33-.06,1.63.86,3.12,2.4,3.15.22,0,.44-.04.66-.13.5-.2.95-.64,1.19-1.21.22-.52.29-1.3-.01-1.76-.17-.26-.5-.49-.78-.49-.19,0-.38.09-.54.23-.29.27-.26.64-.46.95-.69,1.06-1.15.06-1.2-.42-.03-.33.04-.66.16-.98,1.06-3.24,4.11-.77,5.28,1.07,1.22,1.77,1.93,4.05,3,5.91.57.97,1.48,1.97,2.49,1.82-.02-.18-.04-.36-.07-.55-.06-.16-.11-.31-.17-.47Z"/>
                <path class="cls-2" d="M92,91.88c.06.09.12.18.18.28-.06-.09-.12-.18-.18-.28Z"/>
                <path class="cls-2" d="M103.44,87.69c-.86-1.2-2.04-1.89-3.03-1.53-.99.37-1.68,1.9-1.44,3.42.23,1.5,1.58,2.63,2.4,1.71.45-.52.63-1.51,1.14-1.85.43-.29,1,.03,1.35.64.35.61.51,1.43.55,2.23.22,6.25-4.46,8.59-7.16,6.31-2.55-1.98-3.36-5.94-4.73-9.66-.64-1.92-.79-5.3,1.32-5.41.21,0,.48-.03.49-.3,0-.1-.03-.21-.08-.31-.33-.76-.93-1.32-1.54-1.57-.79-.32-1.67-.23-2.29.22-.27.2-.64,1.13-.92,1.17-.3.04-1.31-1.07-1.6-1.3-2.63-2.26-6.11-4.57-9.24-3.61-.66.2-.17.83.26,1.1.91.57,1.63,1.47,2.49,2.04-.11.31-.38.56-.5.9-.13.39-.18.82-.16,1.23.09,1.58,1.01,2.59,2.09,3.06.19.08.36-.14.27-.37-.58-1.38,1.05-1.88,1.78-1.74.82.14,1.62.5,2.39.92,1.53.82,2.68,2.28,3.53,3.97,1.25,3.21,2.32,6.44,3.91,9.2,1.19,2.02,2.9,3.77,4.97,3.58.79-.09,1.59-.48,2.33-1.12.36-.31.7-.68,1.01-1.09,2.26-2.82,2.72-8.72.41-11.84Z"/>
              </g>
              <g>
                <path class="cls-2" d="M109.51,101.51c-.22,0-.44.04-.66.13-.5.2-.95.64-1.19,1.21-.22.52-.29,1.3.01,1.76.17.26.5.49.78.49.19,0,.38-.09.54-.23.29-.27.26-.64.46-.95.69-1.06,1.15-.06,1.2.42.03.33-.04.66-.16.98-1.06,3.24-4.11.77-5.28-1.07-1.22-1.77-1.93-4.05-3-5.91-.57-.97-1.48-1.97-2.49-1.82.02.18.04.36.07.55.06.16.11.31.17.47.57.33,1.12,1,1.49,1.46.95,1.2,1.62,2.73,2.4,4.13.66,1.2,1.4,2.31,2.32,3.21.79.77,1.8,1.63,2.83,1.66,1.58.04,2.84-1.65,2.92-3.33.06-1.63-.86-3.12-2.4-3.15Z"/>
                <path class="cls-2" d="M104.92,104.32c-.06-.09-.12-.18-.18-.28.06.09.12.18.18.28Z"/>
                <path class="cls-2" d="M118,117.24c-.91-.57-1.63-1.47-2.49-2.04.11-.31.38-.56.5-.9.13-.39.18-.81.16-1.23-.09-1.58-1.01-2.59-2.09-3.06-.19-.08-.36.14-.27.37.58,1.38-1.05,1.88-1.78,1.74-.82-.14-1.62-.5-2.39-.92-1.53-.82-2.68-2.28-3.53-3.97-1.25-3.21-2.32-6.44-3.91-9.2-1.19-2.02-2.9-3.77-4.97-3.58-.79.09-1.59.48-2.33,1.12-.36.31-.7.68-1.01,1.09-2.26,2.82-2.72,8.72-.41,11.84.86,1.2,2.04,1.89,3.03,1.53.99-.37,1.68-1.9,1.44-3.42-.23-1.5-1.58-2.63-2.4-1.71-.45.52-.63,1.51-1.14,1.85-.43.29-1-.03-1.35-.64-.35-.61-.51-1.43-.55-2.23-.22-6.25,4.46-8.59,7.16-6.31,2.55,1.98,3.36,5.94,4.73,9.66.64,1.92.79,5.3-1.32,5.41-.21,0-.48.03-.49.3,0,.1.03.21.08.31.33.76.93,1.32,1.54,1.57.79.32,1.67.23,2.29-.22.27-.2.64-1.13.92-1.17.3-.04,1.31,1.07,1.6,1.3,2.63,2.26,6.11,4.57,9.24,3.61.66-.2.17-.83-.26-1.1Z"/>
              </g>
            </g>
          </g>
        </g>
        <g>
          <g>
            <path class="cls-4" d="M311.86,64.09s0-2.21,0-3.84c0-2.6,3.13-3.1,3.13-3.1,0,0-3.13-.13-3.13-2.97,0-1.82,0-2.06,0-2.87,6.2,1.29,13.22-.44,18.04-5.26l-18.04,18.03Z"/>
            <path class="cls-4" d="M311.87,64.09s2.21,0,3.84,0c2.6,0,3.1-3.13,3.1-3.13,0,0,.13,3.13,2.97,3.13,1.82,0,2.06,0,2.87,0-1.29-6.2.44-13.22,5.26-18.04l-18.03,18.04Z"/>
          </g>
          <rect class="cls-4" x="330.81" y="36.47" width="9" height="9" transform="translate(670.62 81.94) rotate(-180)"/>
          <g>
            <g>
              <g>
                <path class="cls-2" d="M233.74,140.43c.92-.89,2.07-1.59,3.29-2.21,1.43-.72,2.98-1.34,4.21-2.25.48-.36,1.17-.88,1.52-1.44.16-.05.32-.1.48-.15.18-.02.37-.03.55-.05.12,1.01-.92,1.89-1.9,2.42-1.9,1-4.21,1.63-6.02,2.79-1.88,1.11-4.46,4.06-1.26,5.24.31.13.65.22.97.2.48-.04,1.5-.46.46-1.19-.31-.21-.67-.19-.93-.49-.14-.16-.22-.35-.21-.55,0-.29.25-.6.51-.77.47-.29,1.25-.19,1.76.05.56.26.98.73,1.16,1.23.08.22.11.44.11.66-.08,1.54-1.61,2.41-3.23,2.29-1.68-.14-3.31-1.46-3.22-3.03.07-1.03.96-2.01,1.76-2.77Z"/>
                <path class="cls-2" d="M235.79,139.27c.09-.06.19-.11.28-.17-.09.05-.19.11-.28.17Z"/>
                <path class="cls-2" d="M225.24,142.99c.24-.28,1.38-1.25,1.36-1.55-.03-.28-.94-.68-1.14-.96-.43-.64-.49-1.52-.14-2.3.27-.61.85-1.19,1.62-1.49.1-.04.21-.07.31-.07.27.02.28.29.28.5.04,2.12,3.41,2.09,5.36,1.52,3.77-1.23,7.75-1.9,9.82-4.38,2.38-2.62.2-7.38-6.05-7.38-.8.01-1.63.14-2.25.47-.62.33-.97.89-.69,1.33.33.52,1.31.74,1.81,1.21.89.85-.28,2.16-1.79,2.34-1.52.18-3.03-.56-3.36-1.57-.33-1,.41-2.16,1.64-2.98,3.2-2.2,9.08-1.53,11.82.83.4.33.76.68,1.06,1.05.61.75.98,1.57,1.03,2.36.12,2.07-1.69,3.72-3.75,4.84-2.82,1.49-6.08,2.44-9.34,3.58-1.72.79-3.22,1.89-4.09,3.39-.44.75-.83,1.54-1,2.36-.16.72.28,2.37,1.68,1.84.23-.08.45.1.36.28-.51,1.06-1.55,1.94-3.13,1.98-.42,0-.84-.06-1.23-.21-.34-.13-.58-.42-.88-.53-.6.84-1.53,1.52-2.13,2.41-.29.43-.93.89-1.11.22-.84-3.16,1.59-6.55,3.94-9.1Z"/>
              </g>
              <g>
                <path class="cls-2" d="M242.6,129.3c1.9-1,4.21-1.63,6.02-2.79,1.88-1.11,4.46-4.06,1.26-5.24-.31-.13-.65-.22-.97-.2-.48.04-1.5.46-.46,1.19.31.21.67.19.93.49.14.16.22.35.21.55,0,.29-.25.6-.51.77-.47.29-1.25.19-1.76-.05-.56-.26-.98-.73-1.16-1.23-.08-.22-.11-.44-.11-.66.08-1.54,1.61-2.41,3.23-2.29,1.68.14,3.31,1.46,3.22,3.03-.07,1.03-.96,2.01-1.76,2.77-.92.89-2.07,1.59-3.29,2.21-1.43.72-2.98,1.34-4.21,2.25-.48.36-1.17.88-1.52,1.44-.16.05-.32.1-.48.15-.18.02-.37.03-.55.05-.12-1.01.92-1.89,1.9-2.42Z"/>
                <path class="cls-2" d="M248.69,126.8c-.09.06-.19.11-.28.17.09-.05.19-.11.28-.17Z"/>
                <path class="cls-2" d="M238.55,134.13c-.12-2.07,1.69-3.72,3.75-4.84,2.82-1.49,6.08-2.44,9.34-3.58,1.72-.79,3.22-1.89,4.09-3.39.44-.75.83-1.54,1-2.36.16-.72-.28-2.37-1.68-1.84-.23.08-.45-.1-.37-.28.51-1.06,1.55-1.94,3.13-1.98.42,0,.84.06,1.23.21.34.13.58.42.88.53.6-.84,1.53-1.52,2.13-2.41.29-.43.93-.89,1.11-.22.84,3.16-1.59,6.55-3.94,9.1-.24.28-1.38,1.25-1.36,1.55.03.28.94.68,1.14.96.43.64.49,1.52.14,2.3-.27.61-.85,1.19-1.62,1.49-.1.04-.21.07-.31.07-.27-.02-.28-.29-.28-.5-.04-2.12-3.41-2.09-5.36-1.52-3.77,1.23-7.75,1.9-9.82,4.38-2.38,2.62-.2,7.38,6.05,7.38.8-.01,1.63-.14,2.25-.47.62-.33.97-.89.69-1.33-.33-.52-1.31-.74-1.81-1.21-.89-.85.28-2.16,1.79-2.34,1.52-.18,3.03.56,3.36,1.57.33,1-.41,2.16-1.64,2.98-3.2,2.2-9.08,1.53-11.82-.83-.4-.33-.76-.68-1.06-1.05-.61-.75-.98-1.57-1.03-2.36Z"/>
              </g>
            </g>
            <g>
              <g>
                <path class="cls-2" d="M279.96,98.64c.57-.33,1.12-1,1.49-1.46.95-1.2,1.62-2.73,2.4-4.13.66-1.2,1.4-2.31,2.32-3.21.79-.77,1.8-1.63,2.83-1.66,1.58-.04,2.84,1.65,2.92,3.33.06,1.63-.86,3.12-2.4,3.15-.22,0-.44-.04-.66-.13-.5-.2-.95-.64-1.19-1.21-.22-.52-.29-1.3.01-1.76.17-.26.5-.49.78-.49.19,0,.38.09.54.23.29.27.26.64.46.95.69,1.06,1.15.06,1.2-.42.03-.33-.04-.66-.16-.98-1.06-3.24-4.11-.77-5.28,1.07-1.22,1.77-1.93,4.05-3,5.91-.57.97-1.48,1.97-2.49,1.82.02-.18.04-.36.07-.55.06-.16.11-.31.17-.47Z"/>
                <path class="cls-2" d="M284.92,91.85c-.06.09-.12.18-.18.28.06-.09.12-.18.18-.28Z"/>
                <path class="cls-2" d="M273.49,87.66c.86-1.2,2.04-1.89,3.03-1.53.99.37,1.68,1.9,1.44,3.42-.23,1.5-1.58,2.63-2.4,1.71-.45-.52-.63-1.51-1.14-1.85-.43-.29-1,.03-1.35.64-.35.61-.51,1.43-.55,2.23-.22,6.25,4.46,8.59,7.16,6.31,2.55-1.98,3.36-5.94,4.73-9.66.64-1.92.79-5.3-1.32-5.41-.21,0-.48-.03-.49-.3,0-.1.03-.21.08-.31.33-.76.93-1.32,1.54-1.57.79-.32,1.67-.23,2.29.22.27.2.64,1.13.92,1.17.3.04,1.31-1.07,1.6-1.3,2.63-2.26,6.11-4.57,9.24-3.61.66.2.17.83-.26,1.1-.91.57-1.63,1.47-2.49,2.04.11.31.38.56.5.9.13.39.18.82.16,1.23-.09,1.58-1.01,2.59-2.09,3.06-.19.08-.36-.14-.27-.37.58-1.38-1.05-1.88-1.78-1.74-.82.14-1.62.5-2.39.92-1.53.82-2.68,2.28-3.53,3.97-1.25,3.21-2.32,6.44-3.91,9.2-1.19,2.02-2.9,3.77-4.97,3.58-.79-.09-1.59-.48-2.33-1.12-.36-.31-.7-.68-1.01-1.09-2.26-2.82-2.72-8.72-.41-11.84Z"/>
              </g>
              <g>
                <path class="cls-2" d="M267.42,101.49c.22,0,.44.04.66.13.5.2.95.64,1.19,1.21.22.52.29,1.3-.01,1.76-.17.26-.5.49-.78.49-.19,0-.38-.09-.54-.23-.29-.27-.26-.64-.46-.95-.69-1.06-1.15-.06-1.2.42-.03.33.04.66.16.98,1.06,3.24,4.11.77,5.28-1.07,1.22-1.77,1.93-4.05,3-5.91.57-.97,1.48-1.97,2.49-1.82-.02.18-.04.36-.07.55-.06.16-.11.31-.17.47-.57.33-1.12,1-1.49,1.46-.95,1.2-1.62,2.73-2.4,4.13-.66,1.2-1.4,2.31-2.32,3.21-.79.77-1.8,1.63-2.83,1.66-1.58.04-2.84-1.65-2.92-3.33-.06-1.63.86-3.12,2.4-3.15Z"/>
                <path class="cls-2" d="M272,104.29c.06-.09.12-.18.18-.28-.06.09-.12.18-.18.28Z"/>
                <path class="cls-2" d="M258.93,117.22c.91-.57,1.63-1.47,2.49-2.04-.11-.31-.38-.56-.5-.9-.13-.39-.18-.81-.16-1.23.09-1.58,1.01-2.59,2.09-3.06.19-.08.36.14.27.37-.58,1.38,1.05,1.88,1.78,1.74.82-.14,1.62-.5,2.39-.92,1.53-.82,2.68-2.28,3.53-3.97,1.25-3.21,2.32-6.44,3.91-9.2,1.19-2.02,2.9-3.77,4.97-3.58.79.09,1.59.48,2.33,1.12.36.31.7.68,1.01,1.09,2.26,2.82,2.72,8.72.41,11.84-.86,1.2-2.04,1.89-3.03,1.53-.99-.37-1.68-1.9-1.44-3.42.23-1.5,1.58-2.63,2.4-1.71.45.52.63,1.51,1.14,1.85.43.29,1-.03,1.35-.64.35-.61.51-1.43.55-2.23.22-6.25-4.46-8.59-7.16-6.31-2.55,1.98-3.36,5.94-4.73,9.66-.64,1.92-.79,5.3,1.32,5.41.21,0,.48.03.49.3,0,.1-.03.21-.08.31-.33.76-.93,1.32-1.54,1.57-.79.32-1.67.23-2.29-.22-.27-.2-.64-1.13-.92-1.17-.3-.04-1.31,1.07-1.6,1.3-2.63,2.26-6.11,4.57-9.24,3.61-.66-.2-.17-.83.26-1.1Z"/>
              </g>
            </g>
          </g>
        </g>
        <g>
          <g>
            <path class="cls-4" d="M65.06,312.38s0,2.21,0,3.84c0,2.6-3.13,3.1-3.13,3.1,0,0,3.13.13,3.13,2.97,0,1.82,0,2.06,0,2.87-6.2-1.29-13.22.44-18.04,5.26l18.04-18.03Z"/>
            <path class="cls-4" d="M65.06,312.38s-2.21,0-3.84,0c-2.6,0-3.1,3.13-3.1,3.13,0,0-.13-3.13-2.97-3.13-1.82,0-2.06,0-2.87,0,1.29,6.2-.44,13.22-5.26,18.04l18.03-18.04Z"/>
          </g>
          <rect class="cls-4" x="37.12" y="330.99" width="9" height="9"/>
          <g>
            <g>
              <g>
                <path class="cls-2" d="M143.19,236.03c-.92.89-2.07,1.59-3.29,2.21-1.43.72-2.98,1.34-4.21,2.25-.48.36-1.17.88-1.52,1.44-.16.05-.32.1-.48.15-.18.02-.37.03-.55.05-.12-1.01.92-1.89,1.9-2.42,1.9-1,4.21-1.63,6.02-2.79,1.88-1.11,4.46-4.06,1.26-5.24-.31-.13-.65-.22-.97-.2-.48.04-1.5.46-.46,1.19.31.21.67.19.93.49.14.16.22.35.21.55,0,.29-.25.6-.51.77-.47.29-1.25.19-1.76-.05-.56-.26-.98-.73-1.16-1.23-.08-.22-.11-.44-.11-.66.08-1.54,1.61-2.41,3.23-2.29,1.68.14,3.31,1.46,3.22,3.03-.07,1.03-.96,2.01-1.76,2.77Z"/>
                <path class="cls-2" d="M141.14,237.19c-.09.06-.19.11-.28.17.09-.05.19-.11.28-.17Z"/>
                <path class="cls-2" d="M151.69,233.47c-.24.28-1.38,1.25-1.36,1.55.03.28.94.68,1.14.96.43.64.49,1.52.14,2.3-.27.61-.85,1.19-1.62,1.49-.1.04-.21.07-.31.07-.27-.02-.28-.29-.28-.5-.04-2.12-3.41-2.09-5.36-1.52-3.77,1.23-7.75,1.9-9.82,4.38-2.38,2.62-.2,7.38,6.05,7.38.8-.01,1.63-.14,2.25-.47.62-.33.97-.89.69-1.33-.33-.52-1.31-.74-1.81-1.21-.89-.85.28-2.16,1.79-2.34,1.52-.18,3.03.56,3.36,1.57.33,1-.41,2.16-1.64,2.98-3.2,2.2-9.08,1.53-11.82-.83-.4-.33-.76-.68-1.06-1.05-.61-.75-.98-1.57-1.03-2.36-.12-2.07,1.69-3.72,3.75-4.84,2.82-1.49,6.08-2.44,9.34-3.58,1.72-.79,3.22-1.89,4.09-3.39.44-.75.83-1.54,1-2.36.16-.72-.28-2.37-1.68-1.84-.23.08-.45-.1-.36-.28.51-1.06,1.55-1.94,3.13-1.98.42,0,.84.06,1.23.21.34.13.58.42.88.53.6-.84,1.53-1.52,2.13-2.41.29-.43.93-.89,1.11-.22.84,3.16-1.59,6.55-3.94,9.1Z"/>
              </g>
              <g>
                <path class="cls-2" d="M134.33,247.16c-1.9,1-4.21,1.63-6.02,2.79-1.88,1.11-4.46,4.06-1.26,5.24.31.13.65.22.97.2.48-.04,1.5-.46.46-1.19-.31-.21-.67-.19-.93-.49-.14-.16-.22-.35-.21-.55,0-.29.25-.6.51-.77.47-.29,1.25-.19,1.76.05.56.26.98.73,1.16,1.23.08.22.11.44.11.66-.08,1.54-1.61,2.41-3.23,2.29-1.68-.14-3.31-1.46-3.22-3.03.07-1.03.96-2.01,1.76-2.77.92-.89,2.07-1.59,3.29-2.21,1.43-.72,2.98-1.34,4.21-2.25.48-.36,1.17-.88,1.52-1.44.16-.05.32-.1.48-.15.18-.02.37-.03.55-.05.12,1.01-.92,1.89-1.9,2.42Z"/>
                <path class="cls-2" d="M128.24,249.66c.09-.06.19-.11.28-.17-.09.05-.19.11-.28.17Z"/>
                <path class="cls-2" d="M138.38,242.33c.12,2.07-1.69,3.72-3.75,4.84-2.82,1.49-6.08,2.44-9.34,3.58-1.72.79-3.22,1.89-4.09,3.39-.44.75-.83,1.54-1,2.36-.16.72.28,2.37,1.68,1.84.23-.08.45.1.37.28-.51,1.06-1.55,1.94-3.13,1.98-.42,0-.84-.06-1.23-.21-.34-.13-.58-.42-.88-.53-.6.84-1.53,1.52-2.13,2.41-.29.43-.93.89-1.11.22-.84-3.16,1.59-6.55,3.94-9.1.24-.28,1.38-1.25,1.36-1.55-.03-.28-.94-.68-1.14-.96-.43-.64-.49-1.52-.14-2.3.27-.61.85-1.19,1.62-1.49.1-.04.21-.07.31-.07.27.02.28.29.28.5.04,2.12,3.41,2.09,5.36,1.52,3.77-1.23,7.75-1.9,9.82-4.38,2.38-2.62.2-7.38-6.05-7.38-.8.01-1.63.14-2.25.47-.62.33-.97.89-.69,1.33.33.52,1.31.74,1.81,1.21.89.85-.28,2.16-1.79,2.34-1.52.18-3.03-.56-3.36-1.57-.33-1,.41-2.16,1.64-2.98,3.2-2.2,9.08-1.53,11.82.83.4.33.76.68,1.06,1.05.61.75.98,1.57,1.03,2.36Z"/>
              </g>
            </g>
            <g>
              <g>
                <path class="cls-2" d="M96.97,277.82c-.57.33-1.12,1-1.49,1.46-.95,1.2-1.62,2.73-2.4,4.13-.66,1.2-1.4,2.31-2.32,3.21-.79.77-1.8,1.63-2.83,1.66-1.58.04-2.84-1.65-2.92-3.33-.06-1.63.86-3.12,2.4-3.15.22,0,.44.04.66.13.5.2.95.64,1.19,1.21.22.52.29,1.3-.01,1.76-.17.26-.5.49-.78.49-.19,0-.38-.09-.54-.23-.29-.27-.26-.64-.46-.95-.69-1.06-1.15-.06-1.2.42-.03.33.04.66.16.98,1.06,3.24,4.11.77,5.28-1.07,1.22-1.77,1.93-4.05,3-5.91.57-.97,1.48-1.97,2.49-1.82-.02.18-.04.36-.07.55-.06.16-.11.31-.17.47Z"/>
                <path class="cls-2" d="M92,284.61c.06-.09.12-.18.18-.28-.06.09-.12.18-.18.28Z"/>
                <path class="cls-2" d="M103.44,288.8c-.86,1.2-2.04,1.89-3.03,1.53-.99-.37-1.68-1.9-1.44-3.42.23-1.5,1.58-2.63,2.4-1.71.45.52.63,1.51,1.14,1.85.43.29,1-.03,1.35-.64.35-.61.51-1.43.55-2.23.22-6.25-4.46-8.59-7.16-6.31-2.55,1.98-3.36,5.94-4.73,9.66-.64,1.92-.79,5.3,1.32,5.41.21,0,.48.03.49.3,0,.1-.03.21-.08.31-.33.76-.93,1.32-1.54,1.57-.79.32-1.67.23-2.29-.22-.27-.2-.64-1.13-.92-1.17-.3-.04-1.31,1.07-1.6,1.3-2.63,2.26-6.11,4.57-9.24,3.61-.66-.2-.17-.83.26-1.1.91-.57,1.63-1.47,2.49-2.04-.11-.31-.38-.56-.5-.9-.13-.39-.18-.82-.16-1.23.09-1.58,1.01-2.59,2.09-3.06.19-.08.36.14.27.37-.58,1.38,1.05,1.88,1.78,1.74.82-.14,1.62-.5,2.39-.92,1.53-.82,2.68-2.28,3.53-3.97,1.25-3.21,2.32-6.44,3.91-9.2,1.19-2.02,2.9-3.77,4.97-3.58.79.09,1.59.48,2.33,1.12.36.31.7.68,1.01,1.09,2.26,2.82,2.72,8.72.41,11.84Z"/>
              </g>
              <g>
                <path class="cls-2" d="M109.51,274.97c-.22,0-.44-.04-.66-.13-.5-.2-.95-.64-1.19-1.21-.22-.52-.29-1.3.01-1.76.17-.26.5-.49.78-.49.19,0,.38.09.54.23.29.27.26.64.46.95.69,1.06,1.15.06,1.2-.42.03-.33-.04-.66-.16-.98-1.06-3.24-4.11-.77-5.28,1.07-1.22,1.77-1.93,4.05-3,5.91-.57.97-1.48,1.97-2.49,1.82.02-.18.04-.36.07-.55.06-.16.11-.31.17-.47.57-.33,1.12-1,1.49-1.46.95-1.2,1.62-2.73,2.4-4.13.66-1.2,1.4-2.31,2.32-3.21.79-.77,1.8-1.63,2.83-1.66,1.58-.04,2.84,1.65,2.92,3.33.06,1.63-.86,3.12-2.4,3.15Z"/>
                <path class="cls-2" d="M104.92,272.17c-.06.09-.12.18-.18.28.06-.09.12-.18.18-.28Z"/>
                <path class="cls-2" d="M118,259.24c-.91.57-1.63,1.47-2.49,2.04.11.31.38.56.5.9.13.39.18.81.16,1.23-.09,1.58-1.01,2.59-2.09,3.06-.19.08-.36-.14-.27-.37.58-1.38-1.05-1.88-1.78-1.74-.82.14-1.62.5-2.39.92-1.53.82-2.68,2.28-3.53,3.97-1.25,3.21-2.32,6.44-3.91,9.2-1.19,2.02-2.9,3.77-4.97,3.58-.79-.09-1.59-.48-2.33-1.12-.36-.31-.7-.68-1.01-1.09-2.26-2.82-2.72-8.72-.41-11.84.86-1.2,2.04-1.89,3.03-1.53.99.37,1.68,1.9,1.44,3.42-.23,1.5-1.58,2.63-2.4,1.71-.45-.52-.63-1.51-1.14-1.85-.43-.29-1,.03-1.35.64-.35.61-.51,1.43-.55,2.23-.22,6.25,4.46,8.59,7.16,6.31,2.55-1.98,3.36-5.94,4.73-9.66.64-1.92.79-5.3-1.32-5.41-.21,0-.48-.03-.49-.3,0-.1.03-.21.08-.31.33-.76.93-1.32,1.54-1.57.79-.32,1.67-.23,2.29.22.27.2.64,1.13.92,1.17.3.04,1.31-1.07,1.6-1.3,2.63-2.26,6.11-4.57,9.24-3.61.66.2.17.83-.26,1.1Z"/>
              </g>
            </g>
          </g>
        </g>
        <g>
          <g>
            <path class="cls-4" d="M311.86,312.4s0,2.21,0,3.84c0,2.6,3.13,3.1,3.13,3.1,0,0-3.13.13-3.13,2.97,0,1.82,0,2.06,0,2.87,6.2-1.29,13.22.44,18.04,5.26l-18.04-18.03Z"/>
            <path class="cls-4" d="M311.87,312.4s2.21,0,3.84,0c2.6,0,3.1,3.13,3.1,3.13,0,0,.13-3.13,2.97-3.13,1.82,0,2.06,0,2.87,0-1.29,6.2.44,13.22,5.26,18.04l-18.03-18.04Z"/>
          </g>
          <rect class="cls-4" x="330.81" y="331.02" width="9" height="9" transform="translate(670.62 671.03) rotate(180)"/>
          <g>
            <g>
              <g>
                <path class="cls-2" d="M233.74,236.05c.92.89,2.07,1.59,3.29,2.21,1.43.72,2.98,1.34,4.21,2.25.48.36,1.17.88,1.52,1.44.16.05.32.1.48.15.18.02.37.03.55.05.12-1.01-.92-1.89-1.9-2.42-1.9-1-4.21-1.63-6.02-2.79-1.88-1.11-4.46-4.06-1.26-5.24.31-.13.65-.22.97-.2.48.04,1.5.46.46,1.19-.31.21-.67.19-.93.49-.14.16-.22.35-.21.55,0,.29.25.6.51.77.47.29,1.25.19,1.76-.05.56-.26.98-.73,1.16-1.23.08-.22.11-.44.11-.66-.08-1.54-1.61-2.41-3.23-2.29-1.68.14-3.31,1.46-3.22,3.03.07,1.03.96,2.01,1.76,2.77Z"/>
                <path class="cls-2" d="M235.79,237.22c.09.06.19.11.28.17-.09-.05-.19-.11-.28-.17Z"/>
                <path class="cls-2" d="M225.24,233.5c.24.28,1.38,1.25,1.36,1.55-.03.28-.94.68-1.14.96-.43.64-.49,1.52-.14,2.3.27.61.85,1.19,1.62,1.49.1.04.21.07.31.07.27-.02.28-.29.28-.5.04-2.12,3.41-2.09,5.36-1.52,3.77,1.23,7.75,1.9,9.82,4.38,2.38,2.62.2,7.38-6.05,7.38-.8-.01-1.63-.14-2.25-.47-.62-.33-.97-.89-.69-1.33.33-.52,1.31-.74,1.81-1.21.89-.85-.28-2.16-1.79-2.34-1.52-.18-3.03.56-3.36,1.57-.33,1,.41,2.16,1.64,2.98,3.2,2.2,9.08,1.53,11.82-.83.4-.33.76-.68,1.06-1.05.61-.75.98-1.57,1.03-2.36.12-2.07-1.69-3.72-3.75-4.84-2.82-1.49-6.08-2.44-9.34-3.58-1.72-.79-3.22-1.89-4.09-3.39-.44-.75-.83-1.54-1-2.36-.16-.72.28-2.37,1.68-1.84.23.08.45-.1.36-.28-.51-1.06-1.55-1.94-3.13-1.98-.42,0-.84.06-1.23.21-.34.13-.58.42-.88.53-.6-.84-1.53-1.52-2.13-2.41-.29-.43-.93-.89-1.11-.22-.84,3.16,1.59,6.55,3.94,9.1Z"/>
              </g>
              <g>
                <path class="cls-2" d="M242.6,247.19c1.9,1,4.21,1.63,6.02,2.79,1.88,1.11,4.46,4.06,1.26,5.24-.31.13-.65.22-.97.2-.48-.04-1.5-.46-.46-1.19.31-.21.67-.19.93-.49.14-.16.22-.35.21-.55,0-.29-.25-.6-.51-.77-.47-.29-1.25-.19-1.76.05-.56.26-.98.73-1.16,1.23-.08.22-.11.44-.11.66.08,1.54,1.61,2.41,3.23,2.29,1.68-.14,3.31-1.46,3.22-3.03-.07-1.03-.96-2.01-1.76-2.77-.92-.89-2.07-1.59-3.29-2.21-1.43-.72-2.98-1.34-4.21-2.25-.48-.36-1.17-.88-1.52-1.44-.16-.05-.32-.1-.48-.15-.18-.02-.37-.03-.55-.05-.12,1.01.92,1.89,1.9,2.42Z"/>
                <path class="cls-2" d="M248.69,249.69c-.09-.06-.19-.11-.28-.17.09.05.19.11.28.17Z"/>
                <path class="cls-2" d="M238.55,242.35c-.12,2.07,1.69,3.72,3.75,4.84,2.82,1.49,6.08,2.44,9.34,3.58,1.72.79,3.22,1.89,4.09,3.39.44.75.83,1.54,1,2.36.16.72-.28,2.37-1.68,1.84-.23-.08-.45.1-.37.28.51,1.06,1.55,1.94,3.13,1.98.42,0,.84-.06,1.23-.21.34-.13.58-.42.88-.53.6.84,1.53,1.52,2.13,2.41.29.43.93.89,1.11.22.84-3.16-1.59-6.55-3.94-9.1-.24-.28-1.38-1.25-1.36-1.55.03-.28.94-.68,1.14-.96.43-.64.49-1.52.14-2.3-.27-.61-.85-1.19-1.62-1.49-.1-.04-.21-.07-.31-.07-.27.02-.28.29-.28.5-.04,2.12-3.41,2.09-5.36,1.52-3.77-1.23-7.75-1.9-9.82-4.38-2.38-2.62-.2-7.38,6.05-7.38.8.01,1.63.14,2.25.47.62.33.97.89.69,1.33-.33.52-1.31.74-1.81,1.21-.89.85.28,2.16,1.79,2.34,1.52.18,3.03-.56,3.36-1.57.33-1-.41-2.16-1.64-2.98-3.2-2.2-9.08-1.53-11.82.83-.4.33-.76.68-1.06,1.05-.61.75-.98,1.57-1.03,2.36Z"/>
              </g>
            </g>
            <g>
              <g>
                <path class="cls-2" d="M279.96,277.84c.57.33,1.12,1,1.49,1.46.95,1.2,1.62,2.73,2.4,4.13.66,1.2,1.4,2.31,2.32,3.21.79.77,1.8,1.63,2.83,1.66,1.58.04,2.84-1.65,2.92-3.33.06-1.63-.86-3.12-2.4-3.15-.22,0-.44.04-.66.13-.5.2-.95.64-1.19,1.21-.22.52-.29,1.3.01,1.76.17.26.5.49.78.49.19,0,.38-.09.54-.23.29-.27.26-.64.46-.95.69-1.06,1.15-.06,1.2.42.03.33-.04.66-.16.98-1.06,3.24-4.11.77-5.28-1.07-1.22-1.77-1.93-4.05-3-5.91-.57-.97-1.48-1.97-2.49-1.82.02.18.04.36.07.55.06.16.11.31.17.47Z"/>
                <path class="cls-2" d="M284.92,284.63c-.06-.09-.12-.18-.18-.28.06.09.12.18.18.28Z"/>
                <path class="cls-2" d="M273.49,288.82c.86,1.2,2.04,1.89,3.03,1.53.99-.37,1.68-1.9,1.44-3.42-.23-1.5-1.58-2.63-2.4-1.71-.45.52-.63,1.51-1.14,1.85-.43.29-1-.03-1.35-.64-.35-.61-.51-1.43-.55-2.23-.22-6.25,4.46-8.59,7.16-6.31,2.55,1.98,3.36,5.94,4.73,9.66.64,1.92.79,5.3-1.32,5.41-.21,0-.48.03-.49.3,0,.1.03.21.08.31.33.76.93,1.32,1.54,1.57.79.32,1.67.23,2.29-.22.27-.2.64-1.13.92-1.17.3-.04,1.31,1.07,1.6,1.3,2.63,2.26,6.11,4.57,9.24,3.61.66-.2.17-.83-.26-1.1-.91-.57-1.63-1.47-2.49-2.04.11-.31.38-.56.5-.9.13-.39.18-.82.16-1.23-.09-1.58-1.01-2.59-2.09-3.06-.19-.08-.36.14-.27.37.58,1.38-1.05,1.88-1.78,1.74-.82-.14-1.62-.5-2.39-.92-1.53-.82-2.68-2.28-3.53-3.97-1.25-3.21-2.32-6.44-3.91-9.2-1.19-2.02-2.9-3.77-4.97-3.58-.79.09-1.59.48-2.33,1.12-.36.31-.7.68-1.01,1.09-2.26,2.82-2.72,8.72-.41,11.84Z"/>
              </g>
              <g>
                <path class="cls-2" d="M267.42,275c.22,0,.44-.04.66-.13.5-.2.95-.64,1.19-1.21.22-.52.29-1.3-.01-1.76-.17-.26-.5-.49-.78-.49-.19,0-.38.09-.54.23-.29.27-.26.64-.46.95-.69,1.06-1.15.06-1.2-.42-.03-.33.04-.66.16-.98,1.06-3.24,4.11-.77,5.28,1.07,1.22,1.77,1.93,4.05,3,5.91.57.97,1.48,1.97,2.49,1.82-.02-.18-.04-.36-.07-.55-.06-.16-.11-.31-.17-.47-.57-.33-1.12-1-1.49-1.46-.95-1.2-1.62-2.73-2.4-4.13-.66-1.2-1.4-2.31-2.32-3.21-.79-.77-1.8-1.63-2.83-1.66-1.58-.04-2.84,1.65-2.92,3.33-.06,1.63.86,3.12,2.4,3.15Z"/>
                <path class="cls-2" d="M272,272.19c.06.09.12.18.18.28-.06-.09-.12-.18-.18-.28Z"/>
                <path class="cls-2" d="M258.93,259.27c.91.57,1.63,1.47,2.49,2.04-.11.31-.38.56-.5.9-.13.39-.18.81-.16,1.23.09,1.58,1.01,2.59,2.09,3.06.19.08.36-.14.27-.37-.58-1.38,1.05-1.88,1.78-1.74.82.14,1.62.5,2.39.92,1.53.82,2.68,2.28,3.53,3.97,1.25,3.21,2.32,6.44,3.91,9.2,1.19,2.02,2.9,3.77,4.97,3.58.79-.09,1.59-.48,2.33-1.12.36-.31.7-.68,1.01-1.09,2.26-2.82,2.72-8.72.41-11.84-.86-1.2-2.04-1.89-3.03-1.53-.99.37-1.68,1.9-1.44,3.42.23,1.5,1.58,2.63,2.4,1.71.45-.52.63-1.51,1.14-1.85.43-.29,1,.03,1.35.64.35.61.51,1.43.55,2.23.22,6.25-4.46,8.59-7.16,6.31-2.55-1.98-3.36-5.94-4.73-9.66-.64-1.92-.79-5.3,1.32-5.41.21,0,.48-.03.49-.3,0-.1-.03-.21-.08-.31-.33-.76-.93-1.32-1.54-1.57-.79-.32-1.67-.23-2.29.22-.27.2-.64,1.13-.92,1.17-.3.04-1.31-1.07-1.6-1.3-2.63-2.26-6.11-4.57-9.24-3.61-.66.2-.17.83.26,1.1Z"/>
              </g>
            </g>
          </g>
        </g>
        <g>
          <g>
            <path class="cls-4" d="M188.3,99.82l24.7-24.7h9.79s0-9.78,0-9.78l24.7-24.71h8.18s-27.1,27.1-27.1,27.1v13.17h-13.18s-27.1,27.1-27.1,27.1v-8.18Z"/>
            <path class="cls-4" d="M188.3,107.99l-27.1-27.1h-13.18v-13.17l-27.1-27.1h8.18s24.7,24.71,24.7,24.71v9.78h9.79s24.7,24.7,24.7,24.7v8.18Z"/>
          </g>
          <g>
            <path class="cls-4" d="M188.3,268.24l27.1,27.1h13.18s0,13.17,0,13.17l27.1,27.1h-8.18s-24.7-24.71-24.7-24.71v-9.78h-9.79s-24.7-24.7-24.7-24.7v-8.18Z"/>
            <path class="cls-4" d="M188.3,276.42l-24.7,24.7h-9.79s0,9.78,0,9.78l-24.7,24.71h-8.18s27.1-27.1,27.1-27.1v-13.17h13.18l27.1-27.1v8.18Z"/>
          </g>
          <g>
            <path class="cls-4" d="M276.6,188.12l24.7,24.7v9.79s9.78,0,9.78,0l24.71,24.7v8.18s-27.1-27.1-27.1-27.1h-13.17v-13.18s-27.1-27.1-27.1-27.1h8.18Z"/>
            <path class="cls-4" d="M268.42,188.12l27.1-27.1v-13.18h13.17l27.1-27.1v8.18s-24.71,24.7-24.71,24.7h-9.78v9.79s-24.7,24.7-24.7,24.7h-8.18Z"/>
          </g>
          <g>
            <path class="cls-4" d="M108.17,188.12l-27.1,27.1v13.18s-13.17,0-13.17,0l-27.1,27.1v-8.18s24.71-24.7,24.71-24.7h9.78v-9.79s24.7-24.7,24.7-24.7h8.18Z"/>
            <path class="cls-4" d="M100,188.12l-24.7-24.7v-9.79s-9.78,0-9.78,0l-24.71-24.7v-8.18s27.1,27.1,27.1,27.1h13.17v13.18l27.1,27.1h-8.18Z"/>
          </g>
        </g>
        <g>
          <path class="cls-2" d="M87.12,333.36l2.23,2.26h8.09c-.09-.49-.29-1-.77-1.54l-3.83-3.89c.08,1.36-1.42,1.72-1.66,2.98-1.16-1.14,1.55-2.67-.09-4.75l-1.38-1.4c-2.56-2.69-2.59-3.67-2.59-3.67,0,0-.03.99-2.6,3.69l-1.35,1.37c-1.65,2.09,1.06,3.62-.1,4.76-.24-1.26-1.75-1.62-1.66-2.98l-3.88,3.94c-.45.53-.64,1.02-.73,1.49h8.1l2.23-2.26Z"/>
          <path class="cls-2" d="M285.35,333.36l2.23,2.26h8.09c-.09-.49-.29-1-.77-1.54l-3.83-3.89c.08,1.36-1.42,1.72-1.66,2.98-1.16-1.14,1.55-2.67-.09-4.75l-1.38-1.4c-2.56-2.69-2.59-3.67-2.59-3.67,0,0-.03.99-2.6,3.69l-1.35,1.37c-1.65,2.09,1.06,3.62-.1,4.76-.24-1.26-1.75-1.62-1.66-2.98l-3.88,3.94c-.45.53-.64,1.02-.73,1.49h8.1l2.23-2.26Z"/>
          <path class="cls-2" d="M87.12,42.88l2.23-2.26h8.09c-.09.49-.29,1-.77,1.54l-3.83,3.89c.08-1.36-1.42-1.72-1.66-2.98-1.16,1.14,1.55,2.67-.09,4.75l-1.38,1.4c-2.56,2.69-2.59,3.67-2.59,3.67,0,0-.03-.99-2.6-3.69l-1.35-1.37c-1.65-2.09,1.06-3.62-.1-4.76-.24,1.26-1.75,1.62-1.66,2.98l-3.88-3.94c-.45-.53-.64-1.02-.73-1.49h8.1l2.23,2.26Z"/>
          <path class="cls-2" d="M285.35,42.88l2.23-2.26h8.09c-.09.49-.29,1-.77,1.54l-3.83,3.89c.08-1.36-1.42-1.72-1.66-2.98-1.16,1.14,1.55,2.67-.09,4.75l-1.38,1.4c-2.56,2.69-2.59,3.67-2.59,3.67,0,0-.03-.99-2.6-3.69l-1.35-1.37c-1.65-2.09,1.06-3.62-.1-4.76-.24,1.26-1.75,1.62-1.66,2.98l-3.88-3.94c-.45-.53-.64-1.02-.73-1.49h8.1l2.23,2.26Z"/>
        </g>
        <g>
          <path class="cls-2" d="M43.06,89.01l-2.26,2.23v8.09c.49-.09,1-.29,1.54-.77l3.89-3.83c-1.36.08-1.72-1.42-2.98-1.66,1.14-1.16,2.67,1.55,4.75-.09l1.4-1.38c2.69-2.56,3.67-2.59,3.67-2.59,0,0-.99-.03-3.69-2.6l-1.37-1.35c-2.09-1.65-3.62,1.06-4.76-.1,1.26-.24,1.62-1.75,2.98-1.66l-3.94-3.88c-.53-.45-1.02-.64-1.49-.73v8.1l2.26,2.23Z"/>
          <path class="cls-2" d="M43.06,287.24l-2.26,2.23v8.09c.49-.09,1-.29,1.54-.77l3.89-3.83c-1.36.08-1.72-1.42-2.98-1.66,1.14-1.16,2.67,1.55,4.75-.09l1.4-1.38c2.69-2.56,3.67-2.59,3.67-2.59,0,0-.99-.03-3.69-2.6l-1.37-1.35c-2.09-1.65-3.62,1.06-4.76-.1,1.26-.24,1.62-1.75,2.98-1.66l-3.94-3.88c-.53-.45-1.02-.64-1.49-.73v8.1l2.26,2.23Z"/>
          <path class="cls-2" d="M333.53,89.01l2.26,2.23v8.09c-.49-.09-1-.29-1.54-.77l-3.89-3.83c1.36.08,1.72-1.42,2.98-1.66-1.14-1.16-2.67,1.55-4.75-.09l-1.4-1.38c-2.69-2.56-3.67-2.59-3.67-2.59,0,0,.99-.03,3.69-2.6l1.37-1.35c2.09-1.65,3.62,1.06,4.76-.1-1.26-.24-1.62-1.75-2.98-1.66l3.94-3.88c.53-.45,1.02-.64,1.49-.73v8.1l-2.26,2.23Z"/>
          <path class="cls-2" d="M333.53,287.24l2.26,2.23v8.09c-.49-.09-1-.29-1.54-.77l-3.89-3.83c1.36.08,1.72-1.42,2.98-1.66-1.14-1.16-2.67,1.55-4.75-.09l-1.4-1.38c-2.69-2.56-3.67-2.59-3.67-2.59,0,0,.99-.03,3.69-2.6l1.37-1.35c2.09-1.65,3.62,1.06,4.76-.1-1.26-.24-1.62-1.75-2.98-1.66l3.94-3.88c.53-.45,1.02-.64,1.49-.73v8.1l-2.26,2.23Z"/>
        </g>
        <g id="terralux_living_logomark" data-name="terralux living logomark">
          <rect class="cls-4" x="187.65" y="164.41" width="1.19" height="19.98"/>
          <rect class="cls-4" x="187.66" y="189.76" width="1.19" height="19.98"/>
          <path class="cls-4" d="M190.14,161.4c-.47-.58-1.18-.96-1.99-.96s-1.54.38-2,.98c-.33.43-.53.96-.53,1.54,0,1.22.87,2.24,2.02,2.47.16.03.33.05.5.05.24,0,.47-.03.69-.1,1.06-.3,1.84-1.27,1.84-2.42,0-.59-.2-1.13-.55-1.56ZM188.15,164.29c-.74,0-1.34-.6-1.34-1.33s.6-1.33,1.34-1.33,1.34.6,1.34,1.33-.6,1.33-1.34,1.33Z"/>
          <path class="cls-4" d="M188.85,209.15c-.22-.06-.46-.1-.7-.1-.17,0-.33.02-.49.05-1.16.23-2.04,1.25-2.04,2.47,0,.75.33,1.43.86,1.89.44.39,1.03.63,1.67.63s1.2-.23,1.65-.61c.54-.46.88-1.15.88-1.91,0-1.15-.78-2.12-1.83-2.42ZM188.15,210.24c.74,0,1.34.6,1.34,1.33s-.6,1.33-1.34,1.33-1.34-.6-1.34-1.33.6-1.33,1.34-1.33Z"/>
          <rect class="cls-4" x="190.93" y="186.6" width="19.98" height="1.19"/>
          <rect class="cls-4" x="165.59" y="186.61" width="19.98" height="1.19"/>
          <path class="cls-4" d="M214.32,185.58c-.47-.55-1.16-.91-1.94-.91-1.18,0-2.18.82-2.45,1.93-.05.19-.07.39-.07.6s.02.4.07.59c.26,1.11,1.26,1.94,2.45,1.94.8,0,1.51-.37,1.97-.95.34-.43.55-.98.55-1.58s-.22-1.18-.58-1.62ZM212.39,188.54c-.73,0-1.33-.6-1.33-1.34s.59-1.34,1.33-1.34,1.33.6,1.33,1.34-.6,1.34-1.33,1.34Z"/>
          <path class="cls-4" d="M166.23,186.61c-.26-1.11-1.26-1.94-2.45-1.94-.55,0-1.06.18-1.48.48-.63.46-1.04,1.21-1.04,2.05s.39,1.56,1,2.02c.42.32.95.51,1.51.51,1.18,0,2.18-.82,2.45-1.93.05-.19.07-.39.07-.6s-.02-.4-.07-.59ZM163.78,188.54c-.73,0-1.33-.6-1.33-1.34s.59-1.34,1.33-1.34,1.33.6,1.33,1.34-.6,1.34-1.33,1.34Z"/>
          <path class="cls-4" d="M208.13,168.71h0c-.12-.13-.25-.27-.38-.39h0c-4.95-5.04-11.84-8.17-19.45-8.17s-14.52,3.14-19.47,8.19h0c-.1.1-.21.21-.31.32-4.65,4.9-7.5,11.51-7.5,18.77,0,15.04,12.24,27.28,27.28,27.28s27.28-12.24,27.28-27.28c0-7.24-2.83-13.83-7.45-18.72ZM212.03,198.25s0,0,0,0c-.18.39-.37.78-.57,1.15h0c-.92,1.79-2.05,3.45-3.35,4.96-.38.44-.76.86-1.16,1.27-1.98,2.03-4.28,3.74-6.83,5.04-.38.2-.78.38-1.17.56-2.82,1.27-5.91,2.05-9.15,2.23-.5.03-1,.04-1.51.04-.61,0-1.21-.02-1.81-.07-3.18-.21-6.2-1.01-8.97-2.27-.4-.18-.79-.37-1.17-.57-2.5-1.29-4.76-2.98-6.71-4.97-.39-.4-.77-.81-1.14-1.24-1.34-1.56-2.5-3.28-3.44-5.13-.2-.39-.39-.78-.57-1.18h0c-1.23-2.74-2.01-5.73-2.22-8.87-.04-.59-.06-1.19-.06-1.8,0-.77.03-1.53.1-2.28.25-2.96,1-5.77,2.17-8.37.18-.4.37-.79.56-1.18.97-1.89,2.15-3.65,3.53-5.24.63-.72,1.3-1.42,2-2.07,1.71-1.59,3.65-2.96,5.74-4.04.38-.2.77-.39,1.17-.57,2.68-1.23,5.6-2.01,8.67-2.26.71-.06,1.42-.09,2.14-.09.62,0,1.23.02,1.84.07,3.13.22,6.11.99,8.84,2.23h0c.39.18.78.36,1.16.56,2.15,1.1,4.12,2.49,5.87,4.11.71.66,1.39,1.36,2.02,2.09,1.33,1.54,2.49,3.25,3.43,5.08.2.38.39.76.56,1.15,1.26,2.76,2.05,5.78,2.28,8.95.04.61.07,1.23.07,1.85,0,.45-.01.9-.03,1.35-.17,3.36-.99,6.56-2.32,9.47Z"/>
          <path class="cls-4" d="M191.53,186.89c0-.1-.02-.19-.03-.29-.04-.26-.1-.51-.2-.75-.32-.79-.93-1.42-1.7-1.77-.24-.1-.49-.18-.75-.23-.13-.02-.27-.04-.41-.05-.06,0-.12,0-.18,0h-.06c-.18,0-.36.02-.53.06-.22.04-.43.1-.64.18-.82.33-1.47.99-1.81,1.81-.1.24-.17.5-.21.76-.02.1-.03.2-.03.3,0,.04,0,.07,0,.11v.06c0,.25.03.49.08.72.02.1.05.2.08.3.3.91.98,1.64,1.85,2.01.21.09.44.16.67.2.16.03.32.05.49.05.03,0,.07,0,.1,0,.07,0,.15,0,.22,0,.13,0,.25-.02.37-.05.28-.05.54-.13.79-.25.82-.38,1.46-1.1,1.74-1.97.03-.09.05-.18.07-.28.05-.23.08-.47.08-.72v-.05s0-.09,0-.13ZM189.45,188.79c-.32.22-.7.36-1.11.37-.01,0-.03,0-.04,0-.01,0-.03,0-.04,0-.4,0-.77-.11-1.08-.3-.34-.21-.62-.51-.79-.88-.13-.26-.21-.55-.21-.86,0-.01,0-.03,0-.04,0-.1,0-.19.02-.28.04-.31.15-.6.32-.85.17-.27.41-.5.69-.67.31-.18.67-.29,1.06-.29h.01s.07,0,.1,0c.39.02.76.15,1.06.35.23.16.43.36.58.6.16.25.27.54.31.84.01.09.02.19.02.28,0,.02,0,.04,0,.05,0,.3-.08.59-.21.85-.15.33-.39.61-.68.81Z"/>
          <path class="cls-4" d="M188.32,184.59c-.01-.07-.02-.13-.03-.2-.03-.2-.06-.4-.1-.6-.13-.75-.31-1.5-.53-2.22h0c-.95-3.1-2.69-5.91-5.12-8.19-3.3-3.1-7.49-4.88-11.97-5.09-.5-.02-1.01-.03-1.52-.01-.08,0-.16.02-.22.05h0c-.14.07-.25.18-.31.32-.03.07-.05.16-.04.24.01.49.05.98.1,1.46.48,4.47,2.52,8.57,5.83,11.68,2.39,2.24,5.25,3.79,8.35,4.56h0c.6.15,1.2.27,1.81.35.13.02.27.04.41.05.2.03.4.05.6.07.2.02.4.03.6.04,0-.01,0-.03,0-.04,0-.1,0-.19.02-.28.04-.31.15-.6.32-.85-.44-.02-.86-.05-1.29-.1-8.33-.99-14.96-7.82-15.52-16.37,4.49,0,8.74,1.7,12.03,4.79,2.81,2.64,4.64,6.05,5.3,9.78.07.41.13.83.17,1.24.31-.18.67-.29,1.06-.29h.01s.07,0,.1,0c-.01-.13-.03-.27-.05-.4Z"/>
          <path class="cls-4" d="M208.13,168.71h0c-.06-.18-.19-.33-.38-.39h0c-.05-.02-.11-.03-.17-.03-.52-.01-1.04-.01-1.55.01-4.46.22-8.65,2-11.94,5.08-2.53,2.38-4.32,5.34-5.24,8.61h0c-.17.6-.31,1.2-.41,1.81-.04.2-.07.39-.09.59-.01.07-.02.13-.03.2-.02.13-.04.27-.05.4.03,0,.07,0,.1,0,.39.02.76.15,1.06.35.04-.43.1-.85.17-1.27.64-3.75,2.48-7.17,5.3-9.83,3.29-3.09,7.54-4.78,12.03-4.79-.56,8.59-7.26,15.44-15.64,16.38-.43.05-.86.08-1.29.1.16.25.27.54.31.84.01.09.02.19.02.28,0,.02,0,.04,0,.05.2,0,.4-.02.6-.04.2-.01.4-.04.6-.06.18-.02.35-.04.52-.07.61-.09,1.23-.21,1.82-.35h0c3.09-.77,5.95-2.31,8.33-4.56,3.3-3.1,5.34-7.2,5.83-11.65.05-.49.09-.99.1-1.49,0-.07,0-.13-.03-.19Z"/>
          <path class="cls-4" d="M188.29,189.16s-.03,0-.04,0c-.4,0-.77-.11-1.08-.3-.05.42-.11.83-.19,1.24-1.56,8.19-8.76,14.33-17.29,14.35.29-4.48,2.24-8.62,5.53-11.71,2.77-2.6,6.21-4.2,9.91-4.65.41-.05.83-.09,1.24-.11-.13-.26-.21-.55-.21-.86,0-.01,0-.03,0-.04,0-.1,0-.19.02-.28-.21,0-.41.03-.61.04-.2.02-.4.04-.6.06-.14.02-.27.04-.41.05-1.18.17-2.33.45-3.44.84h0c-2.47.86-4.75,2.23-6.71,4.08-3.52,3.31-5.6,7.74-5.9,12.53-.01.2-.02.41-.03.61,0,.33.25.61.58.61.19,0,.39,0,.59,0h.01c4.81,0,9.37-1.8,12.89-5.11,2.43-2.28,4.17-5.09,5.12-8.19h0c.2-.66.36-1.31.49-1.99.04-.2.07-.39.1-.59.02-.14.04-.28.06-.43,0-.06.01-.12.02-.18-.01,0-.03,0-.04,0Z"/>
          <path class="cls-4" d="M208.12,204.37c-.31-4.78-2.39-9.2-5.9-12.5-1.97-1.85-4.25-3.22-6.72-4.08h0c-1.11-.39-2.26-.67-3.44-.84-.17-.02-.35-.05-.52-.07-.2-.02-.4-.04-.6-.06-.21-.02-.41-.03-.61-.04.01.09.02.19.02.28,0,.02,0,.04,0,.05,0,.3-.08.59-.21.85.42.02.84.05,1.25.1,3.74.43,7.23,2.04,10.03,4.67,3.29,3.09,5.24,7.23,5.53,11.71-8.55-.02-15.77-6.19-17.3-14.4-.08-.42-.14-.84-.19-1.26-.32.22-.7.36-1.11.37-.01,0-.03,0-.04,0,0,.06.01.11.02.17.01.14.04.28.06.43.03.2.07.39.1.59.1.53.23,1.06.37,1.59h0c.92,3.27,2.7,6.22,5.24,8.6,3.52,3.3,8.07,5.11,12.87,5.11h.01c.2,0,.4,0,.6,0,.33,0,.59-.29.58-.61,0-.22-.02-.43-.03-.65Z"/>
          <path class="cls-4" d="M188.81,172.92l-1.12-.42c1.75-4.66,4.91-5.91,7.69-7.01,1.5-.59,2.91-1.15,3.98-2.19l.83.85c-1.24,1.2-2.76,1.81-4.37,2.44-2.68,1.06-5.45,2.15-7.01,6.32Z"/>
          <path class="cls-4" d="M187.89,172.92c-1.55-4.15-4.42-5.25-7.2-6.31-1.67-.64-3.25-1.24-4.49-2.45l.83-.85c1.07,1.04,2.53,1.6,4.08,2.19,2.88,1.1,6.14,2.35,7.89,7.01l-1.12.42Z"/>
          <path class="cls-4" d="M199.36,211.6c-1.06-1.04-2.48-1.6-3.98-2.19-2.79-1.1-5.95-2.35-7.69-7.01l1.12-.42c1.56,4.17,4.33,5.26,7.01,6.32,1.61.64,3.14,1.24,4.37,2.44l-.83.85Z"/>
          <path class="cls-4" d="M177.04,211.6l-.83-.85c1.24-1.21,2.82-1.82,4.49-2.46,2.77-1.06,5.64-2.16,7.2-6.31l1.12.42c-1.74,4.65-5.01,5.9-7.89,7.01-1.55.59-3.02,1.15-4.08,2.2Z"/>
          <path class="cls-4" d="M211.5,199.44c-1.21-1.24-1.82-2.82-2.45-4.49-1.06-2.77-2.16-5.64-6.31-7.2l.42-1.12c4.65,1.74,5.9,5.01,7.01,7.89.59,1.55,1.15,3.02,2.19,4.08l-.85.83Z"/>
          <path class="cls-4" d="M203.15,187.96l-.42-1.12c4.17-1.56,5.26-4.33,6.32-7.02.64-1.61,1.24-3.14,2.44-4.37l.85.83c-1.04,1.06-1.6,2.48-2.19,3.98-1.1,2.79-2.35,5.95-7.01,7.69Z"/>
          <path class="cls-4" d="M164.9,199.44l-.85-.83c1.04-1.07,1.6-2.53,2.19-4.08,1.1-2.88,2.35-6.14,7.01-7.89l.42,1.12c-4.15,1.55-5.25,4.42-6.31,7.2-.64,1.67-1.24,3.25-2.45,4.49Z"/>
          <path class="cls-4" d="M173.25,187.96c-4.66-1.75-5.91-4.91-7.01-7.69-.59-1.5-1.15-2.91-2.19-3.98l.85-.83c1.2,1.24,1.81,2.76,2.44,4.37,1.06,2.68,2.15,5.45,6.32,7.02l-.42,1.12Z"/>
        </g>
      </g>
    </g>
  </g>
</svg>