<?xml version="1.0" encoding="UTF-8"?>
<svg id="Layer_2" data-name="Layer 2" xmlns="http://www.w3.org/2000/svg" viewBox="0 0 171.55 171.55">
  <g id="terralux_living" data-name="terralux living">
    <g id="terralux_living_logomark" data-name="terralux living logomark">
      <rect x="83.75" y="13.42" width="3.75" height="62.81"/>
      <rect x="83.77" y="93.1" width="3.75" height="62.81"/>
      <path d="M91.57,3.96c-1.46-1.84-3.71-3.02-6.24-3.02s-4.84,1.21-6.29,3.09c-1.04,1.34-1.66,3.01-1.66,4.83,0,3.82,2.75,7.03,6.37,7.76.52.1,1.04.16,1.58.16.75,0,1.48-.1,2.17-.3,3.34-.94,5.79-4,5.79-7.62,0-1.86-.64-3.55-1.72-4.9ZM85.32,13.03c-2.32,0-4.2-1.87-4.2-4.17s1.88-4.17,4.2-4.17,4.21,1.87,4.21,4.17-1.88,4.17-4.21,4.17Z"/>
      <path d="M87.53,154.04c-.7-.2-1.43-.31-2.2-.31-.53,0-1.05.06-1.55.15-3.64.72-6.4,3.93-6.4,7.77,0,2.36,1.05,4.49,2.7,5.93,1.4,1.24,3.23,1.99,5.25,1.99s3.79-.72,5.18-1.92c1.7-1.45,2.77-3.6,2.77-6,0-3.61-2.44-6.66-5.76-7.61ZM85.32,157.48c2.32,0,4.21,1.87,4.21,4.17s-1.88,4.17-4.21,4.17-4.2-1.87-4.2-4.17,1.88-4.17,4.2-4.17Z"/>
      <rect x="94.06" y="83.18" width="62.82" height="3.75"/>
      <rect x="14.39" y="83.2" width="62.82" height="3.75"/>
      <path d="M167.59,79.96c-1.46-1.74-3.65-2.85-6.08-2.85-3.72,0-6.84,2.58-7.69,6.06-.16.61-.23,1.24-.23,1.89s.08,1.26.23,1.86c.82,3.5,3.97,6.09,7.7,6.09,2.5,0,4.73-1.16,6.19-2.98,1.08-1.36,1.73-3.09,1.73-4.97s-.69-3.71-1.84-5.1ZM161.51,89.26c-2.31,0-4.17-1.88-4.17-4.2s1.87-4.2,4.17-4.2,4.17,1.88,4.17,4.2-1.87,4.2-4.17,4.2Z"/>
      <path d="M16.4,83.2c-.82-3.5-3.97-6.09-7.7-6.09-1.73,0-3.34.56-4.64,1.51-1.99,1.44-3.28,3.8-3.28,6.44s1.24,4.89,3.16,6.36c1.32.99,2.97,1.59,4.76,1.59,3.72,0,6.84-2.58,7.69-6.06.16-.61.23-1.24.23-1.89s-.08-1.26-.23-1.86ZM8.71,89.26c-2.31,0-4.17-1.88-4.17-4.2s1.87-4.2,4.17-4.2,4.17,1.88,4.17,4.2-1.87,4.2-4.17,4.2Z"/>
      <path d="M148.11,26.93h0c-.38-.42-.78-.83-1.18-1.24h0C131.36,9.84,109.7,0,85.77,0S40.13,9.87,24.56,25.76h0c-.33.33-.65.67-.97,1C8.97,42.16,0,62.94,0,85.77c0,47.29,38.48,85.77,85.77,85.77s85.77-38.48,85.77-85.77c0-22.75-8.91-43.47-23.44-58.84ZM160.39,119.8s0,0,0,0c-.55,1.23-1.15,2.44-1.78,3.63h0c-2.91,5.62-6.44,10.86-10.52,15.61-1.18,1.38-2.4,2.71-3.66,3.99-6.22,6.38-13.47,11.75-21.49,15.83-1.21.62-2.44,1.21-3.67,1.76-8.87,3.99-18.58,6.44-28.77,7.02-1.57.09-3.15.14-4.73.14-1.91,0-3.82-.07-5.7-.21-9.99-.67-19.5-3.17-28.2-7.13-1.25-.56-2.47-1.16-3.68-1.79-7.86-4.06-14.96-9.36-21.08-15.63-1.23-1.26-2.42-2.55-3.57-3.89-4.21-4.91-7.87-10.32-10.83-16.13-.63-1.22-1.23-2.46-1.78-3.7h0c-3.88-8.62-6.32-18.02-6.98-27.9-.13-1.87-.2-3.75-.2-5.64,0-2.41.1-4.8.32-7.15.8-9.3,3.16-18.15,6.82-26.3.55-1.26,1.15-2.49,1.77-3.71,3.04-5.94,6.77-11.47,11.1-16.47,1.98-2.28,4.08-4.45,6.29-6.5,5.39-5.01,11.46-9.3,18.05-12.71,1.2-.63,2.43-1.23,3.67-1.79,8.43-3.85,17.6-6.33,27.26-7.11,2.22-.19,4.47-.28,6.74-.28,1.95,0,3.88.07,5.79.21,9.85.68,19.21,3.12,27.8,7h0c1.24.55,2.46,1.13,3.66,1.76,6.75,3.45,12.96,7.82,18.47,12.93,2.24,2.07,4.36,4.27,6.37,6.58,4.18,4.86,7.82,10.21,10.79,15.95.63,1.19,1.22,2.4,1.77,3.63,3.97,8.68,6.46,18.18,7.16,28.15.14,1.92.21,3.86.21,5.81,0,1.42-.04,2.84-.1,4.26-.54,10.57-3.1,20.61-7.3,29.77Z"/>
      <path d="M95.93,84.1c-.02-.3-.06-.61-.1-.91-.11-.83-.33-1.61-.63-2.36-.99-2.47-2.92-4.47-5.34-5.57-.74-.33-1.53-.58-2.35-.73-.42-.08-.85-.13-1.3-.16-.19,0-.37,0-.57,0h-.2c-.57,0-1.13.07-1.68.18-.69.12-1.36.32-2,.57-2.58,1.05-4.63,3.1-5.68,5.68-.31.76-.53,1.57-.65,2.4-.06.32-.08.63-.1.95,0,.11,0,.22,0,.34v.2c0,.78.08,1.54.25,2.27.07.32.15.63.25.93.93,2.85,3.07,5.16,5.81,6.31.68.28,1.38.5,2.12.64.5.09,1.01.15,1.55.16.1,0,.22,0,.33,0,.23,0,.48,0,.7-.03.4-.02.8-.08,1.17-.15.87-.16,1.7-.42,2.47-.79,2.59-1.2,4.59-3.45,5.47-6.2.09-.29.17-.58.23-.88.17-.73.25-1.49.25-2.27v-.15c0-.14,0-.28,0-.42ZM89.39,90.04c-.99.7-2.19,1.13-3.5,1.17-.05.02-.09.02-.14,0-.04,0-.08,0-.12,0-1.25,0-2.41-.35-3.4-.96-1.08-.66-1.95-1.61-2.49-2.76-.41-.82-.65-1.74-.66-2.71,0-.05,0-.09,0-.14,0-.3.02-.59.07-.87.12-.97.47-1.88.99-2.68.54-.86,1.29-1.58,2.17-2.1.97-.58,2.12-.91,3.33-.91h.04c.1,0,.21,0,.31.02,1.24.06,2.39.46,3.35,1.12.73.51,1.35,1.14,1.82,1.88.52.79.85,1.69.98,2.65.05.29.07.59.07.89,0,.06,0,.11,0,.17-.02.96-.24,1.86-.65,2.66-.48,1.02-1.23,1.9-2.15,2.54Z"/>
      <path d="M85.83,76.86c-.04-.21-.07-.42-.09-.63-.09-.63-.19-1.25-.3-1.87-.42-2.37-.98-4.71-1.68-6.98v-.02c-2.98-9.74-8.46-18.56-16.09-25.72-10.37-9.73-23.56-15.33-37.62-15.99-1.58-.08-3.19-.08-4.79-.04-.25,0-.49.07-.7.16h0c-.44.21-.79.56-.97,1-.09.23-.15.5-.14.77.05,1.55.16,3.08.32,4.6,1.52,14.05,7.93,26.95,18.34,36.73,7.51,7.05,16.51,11.92,26.24,14.32h.02c1.87.47,3.77.84,5.69,1.12.42.07.84.12,1.27.17.63.08,1.26.15,1.88.21.63.06,1.25.1,1.87.13,0-.05,0-.09,0-.14,0-.3.02-.59.07-.87.12-.97.47-1.88.99-2.68-1.37-.07-2.72-.17-4.05-.33-26.17-3.11-47.04-24.59-48.79-51.46,14.11.03,27.48,5.33,37.82,15.05,8.84,8.3,14.6,19.01,16.66,30.74.23,1.29.41,2.6.54,3.91.97-.58,2.12-.91,3.33-.91h.04c.1,0,.21,0,.31.02-.05-.42-.1-.84-.15-1.27Z"/>
      <path d="M148.11,26.93h0c-.18-.57-.61-1.03-1.18-1.24h0c-.17-.06-.36-.08-.54-.09-1.63-.05-3.26-.04-4.87.05-14.01.7-27.19,6.28-37.53,15.98-7.96,7.48-13.59,16.8-16.46,27.05v.02c-.53,1.87-.97,3.74-1.3,5.66-.11.62-.21,1.24-.29,1.87-.04.21-.07.42-.08.63-.07.41-.12.83-.16,1.25.1,0,.21,0,.31.02,1.24.06,2.39.46,3.35,1.12.12-1.34.3-2.67.53-3.98,2.02-11.78,7.8-22.55,16.68-30.89,10.34-9.71,23.71-15.02,37.82-15.05-1.77,27.01-22.82,48.55-49.16,51.5-1.34.15-2.69.25-4.06.3.52.79.85,1.69.98,2.65.05.29.07.59.07.89,0,.06,0,.11,0,.17.63-.03,1.25-.08,1.87-.13.63-.05,1.26-.11,1.88-.19.55-.06,1.1-.13,1.64-.22,1.93-.27,3.85-.65,5.74-1.12h.02c9.72-2.41,18.7-7.27,26.2-14.32,10.39-9.76,16.79-22.62,18.33-36.63.17-1.55.28-3.12.33-4.7,0-.21-.02-.41-.08-.6Z"/>
      <path d="M85.75,91.22s-.08,0-.12,0c-1.25,0-2.41-.35-3.4-.96-.15,1.32-.35,2.62-.59,3.9-4.89,25.75-27.54,45.05-54.35,45.12.91-14.08,7.04-27.09,17.38-36.8,8.7-8.16,19.54-13.22,31.16-14.62,1.29-.17,2.6-.28,3.91-.35-.41-.82-.65-1.74-.66-2.71,0-.05,0-.09,0-.14,0-.3.02-.59.07-.87-.65.03-1.28.08-1.93.14-.63.06-1.25.12-1.87.2-.43.06-.85.11-1.28.17-3.7.53-7.32,1.42-10.83,2.63h-.02c-7.77,2.69-14.93,7.02-21.1,12.81-11.06,10.4-17.6,24.33-18.56,39.4-.05.64-.07,1.28-.09,1.93-.03,1.03.78,1.9,1.82,1.93.61.02,1.24.03,1.85.03h.05c15.12,0,29.44-5.66,40.52-16.06,7.63-7.17,13.11-16.01,16.09-25.76v-.02c.63-2.04,1.14-4.12,1.55-6.23.12-.62.23-1.24.33-1.87.07-.45.13-.89.2-1.34.02-.19.04-.37.07-.55-.05.02-.09.02-.14,0Z"/>
      <path d="M148.09,139.05c-.97-15.04-7.51-28.93-18.55-39.3-6.18-5.8-13.37-10.13-21.14-12.81h-.02c-3.5-1.22-7.1-2.1-10.8-2.63-.54-.07-1.1-.15-1.65-.21-.62-.08-1.25-.14-1.87-.19-.65-.06-1.28-.1-1.93-.13.05.29.07.59.07.89,0,.06,0,.11,0,.17-.02.96-.24,1.86-.65,2.66,1.31.06,2.63.16,3.92.32,11.76,1.35,22.73,6.42,31.52,14.67,10.34,9.71,16.47,22.72,17.39,36.8-26.88-.07-49.56-19.45-54.38-45.28-.24-1.31-.44-2.63-.59-3.97-.99.7-2.19,1.13-3.5,1.17-.05.02-.09.02-.14,0,.02.18.04.36.08.54.05.45.11.89.19,1.34.09.62.21,1.24.32,1.85.32,1.68.71,3.35,1.17,4.99v.02c2.88,10.26,8.5,19.55,16.46,27.03,11.06,10.39,25.37,16.05,40.47,16.06h.05c.63,0,1.27,0,1.89-.03,1.04-.03,1.85-.9,1.82-1.93-.02-.68-.06-1.36-.1-2.03Z"/>
      <path d="M87.38,40.15l-3.51-1.31c5.49-14.66,15.42-18.59,24.19-22.05,4.71-1.86,9.16-3.62,12.5-6.88l2.62,2.68c-3.88,3.79-8.67,5.68-13.74,7.68-8.43,3.33-17.15,6.77-22.05,19.87Z"/>
      <path d="M84.49,40.15c-4.89-13.05-13.9-16.5-22.62-19.84-5.25-2.01-10.2-3.91-14.11-7.72l2.62-2.68c3.36,3.27,7.96,5.03,12.83,6.9,9.05,3.46,19.31,7.39,24.79,22.03l-3.51,1.31Z"/>
      <path d="M120.55,161.76c-3.34-3.26-7.79-5.02-12.5-6.88-8.76-3.46-18.7-7.39-24.19-22.05l3.51-1.31c4.91,13.1,13.62,16.54,22.05,19.87,5.07,2,9.86,3.89,13.74,7.68l-2.62,2.68Z"/>
      <path d="M50.37,161.76l-2.62-2.68c3.91-3.81,8.87-5.71,14.11-7.72,8.72-3.34,17.73-6.79,22.62-19.84l3.51,1.31c-5.48,14.63-15.74,18.56-24.79,22.03-4.87,1.87-9.48,3.63-12.83,6.9Z"/>
      <path d="M158.7,123.54c-3.81-3.91-5.71-8.87-7.72-14.11-3.34-8.72-6.79-17.73-19.84-22.62l1.31-3.51c14.63,5.48,18.56,15.74,22.03,24.79,1.87,4.87,3.63,9.48,6.9,12.83l-2.68,2.62Z"/>
      <path d="M132.46,87.43l-1.31-3.51c13.1-4.91,16.54-13.62,19.87-22.05,2-5.07,3.89-9.86,7.68-13.74l2.68,2.62c-3.26,3.34-5.02,7.79-6.88,12.5-3.46,8.76-7.39,18.7-22.05,24.19Z"/>
      <path d="M12.22,123.54l-2.68-2.62c3.27-3.36,5.03-7.96,6.9-12.83,3.46-9.05,7.39-19.31,22.03-24.79l1.31,3.51c-13.05,4.89-16.5,13.9-19.84,22.62-2.01,5.25-3.91,10.2-7.72,14.11Z"/>
      <path d="M38.46,87.43c-14.66-5.49-18.59-15.42-22.05-24.19-1.86-4.71-3.62-9.16-6.88-12.5l2.68-2.62c3.79,3.88,5.68,8.67,7.68,13.74,3.33,8.43,6.77,17.15,19.87,22.05l-1.31,3.51Z"/>
    </g>
  </g>
</svg>