<?xml version="1.0" encoding="UTF-8"?>
<svg id="Layer_1" xmlns="http://www.w3.org/2000/svg" version="1.1" viewBox="0 0 1920 539">
  <!-- Generator: Adobe Illustrator 29.1.0, SVG Export Plug-In . SVG Version: 2.1.0 Build 142)  -->
  <defs>
    <style>
      .st0 {
        fill: #d8b670;
      }
    </style>
  </defs>
  <path class="st0" d="M1750.5,152.5c-36.2,4.6-78.1,21-106.2,44.1-.2.1-.3.3-.5.4-21.2,17.5-43.4,41.8-50.3,69.5-5.6,22.5-3.1,42.2,5,64,4.5,12.2,12.1,22.6,22.1,30.9l63.4-69.7-1.2-60.3c-4-1.3-6.8-5.1-6.8-9.5s4.5-10,10-10,10,4.5,10,10-2.6,7.8-6.3,9.3l1.1,53.1,56.5-62.1c-.8-1.6-1.2-3.4-1.2-5.3,0-6.6,5.4-12,12-12s12,5.4,12,12-5.4,12-12,12-2.1-.1-3.1-.4l-84.6,93,59.8-8.8c.6-5,4.8-8.8,9.9-8.8s10,4.5,10,10-4.5,10-10,10-6.7-1.9-8.5-4.7l-68.2,10-34.7,38.1c2.2,1.5,4.5,2.9,6.9,4.1,48,26,105.3,6,141-39,24.1-30.3,36.5-78.3,42.9-115.6,4.2-24.4,7.4-49.1,8.8-73.9,0,0,8.3-1.5-77.7,9.5h0Z"/>
  <g>
    <path class="st0" d="M228.9,180.1v195.2h-11.3v-195.2h-76.8v-9.5h165.3v9.5h-77.1,0Z"/>
    <path class="st0" d="M463.9,375.3h-129.7v-204.7h126.7v9.5h-115.4v88.1h108.6v9.5h-108.6v87.8h118.4v9.8h0Z"/>
    <path class="st0" d="M637.5,375.3h-12.8c-4.8-13.1-8.9-25.2-12.2-53.7-2.7-22.5-12.5-42.1-36.2-43.3-6.2-.3-13.1-.3-17.8-.3h-45.4v97.3h-11.3v-204.7h54c10.4,0,19.3.3,28.8,1.5,31.2,3.9,49.8,20.5,49.8,51s-16.6,44.5-40.7,49.5c18.1,6.2,27.6,24.6,30,47.2,3.3,29.7,7.4,43,13.7,55.5h0ZM558.9,268.2c8,0,13.1,0,21.7-.6,25.5-2.1,41.8-18.7,41.8-43.6s-14.5-38.9-40.3-42.1c-8.3-1.2-15.7-1.5-26.1-1.5h-42.7v87.8h45.7,0Z"/>
    <path class="st0" d="M810.5,375.3h-12.8c-4.8-13.1-8.9-25.2-12.2-53.7-2.7-22.5-12.5-42.1-36.2-43.3-6.2-.3-13.1-.3-17.8-.3h-45.4v97.3h-11.3v-204.7h54c10.4,0,19.3.3,28.8,1.5,31.2,3.9,49.8,20.5,49.8,51s-16.6,44.5-40.7,49.5c18.1,6.2,27.6,24.6,30,47.2,3.3,29.7,7.4,43,13.7,55.5h0ZM731.9,268.2c8,0,13.1,0,21.7-.6,25.5-2.1,41.8-18.7,41.8-43.6s-14.5-38.9-40.3-42.1c-8.3-1.2-15.7-1.5-26.1-1.5h-42.7v87.8h45.7,0Z"/>
    <path class="st0" d="M870.1,297.3l-28.8,78h-12.2l78-204.7h14.8l77.2,204.7h-12.2l-29.4-78h-87.5ZM954.1,287.5l-39.8-107.7-40.3,107.7h80.1,0Z"/>
    <path class="st0" d="M1169.5,375.3h-136.2v-204.7h25.5v184h110.7v20.8h0Z"/>
    <path class="st0" d="M1355.9,299.7c0,6.5,0,12.5-.6,18.4-3,34.1-26.1,61.4-76.3,61.4s-73.3-27.3-76.3-61.4c-.6-5.9-.6-11.9-.6-18.4v-129.1h25.5v126.7c0,6.5,0,12.8.6,18.1,2.4,25.8,19.3,43.9,50.7,43.9s48.4-18.1,50.7-43.9c.6-5.3.6-11.6.6-18.1v-126.7h25.5v129.1h0Z"/>
    <path class="st0" d="M1471.6,288.7l-58.2,86.6h-29.4l73-103.3-67.7-101.5h29.1l54.3,83.7,56.4-83.7h29.4l-71.2,100.6,74.2,104.1h-30l-59.9-86.6h0Z"/>
  </g>
</svg>