<?xml version="1.0" encoding="UTF-8"?>
<svg id="Layer_2" data-name="Layer 2" xmlns="http://www.w3.org/2000/svg" viewBox="0 0 1026.18 172.94">
  <g id="terralux_living" data-name="terralux living">
    <g id="terralux_living_logo" data-name="terralux living logo">
      <g>
        <polygon points="39.23 99.26 39.23 7.24 0 7.24 0 .02 86.92 .02 86.92 7.24 47.7 7.24 47.7 99.26 39.23 99.26"/>
        <polygon points="110.6 99.26 110.6 .02 183.37 .02 183.37 7.24 119.07 7.24 119.07 40.58 176.36 40.58 176.36 47.79 119.07 47.79 119.07 92.04 184.84 92.04 184.84 99.26 110.6 99.26"/>
        <path d="M284.6,99.26l-18.04-36.61-1.87.28c-4.72.71-9.72,1.08-14.88,1.08h-29.72v35.25h-8.47V.02h40.25c14.92,0,26.13,2.02,33.33,6.02,8.48,4.67,12.6,12.37,12.6,23.55,0,14.47-6.47,24.18-19.79,29.69l-2.55,1.06,19.22,38.93h-10.08ZM220.09,56.8h31.56c11.58,0,20.01-1.61,25.77-4.92,7.37-4.27,11.1-11.47,11.1-21.41,0-9.07-4.34-20.33-25.03-22.48-4.43-.5-9.07-.75-13.76-.75h-29.65v49.56Z"/>
        <path d="M398.89,99.26l-18.04-36.61-1.87.28c-4.72.71-9.72,1.08-14.88,1.08h-29.72v35.25h-8.47V.02h40.25c14.92,0,26.13,2.02,33.33,6.02,8.48,4.67,12.6,12.37,12.6,23.55,0,14.47-6.47,24.18-19.79,29.69l-2.55,1.06,19.22,38.93h-10.08ZM334.38,56.8h31.56c11.58,0,20.01-1.61,25.77-4.92,7.37-4.27,11.1-11.47,11.1-21.41,0-9.07-4.34-20.33-25.03-22.48-4.43-.5-9.07-.75-13.76-.75h-29.65v49.56Z"/>
        <path d="M514.45,99.26l-9.88-22.86h-55.62l-10.69,22.86h-8.3L476.35.02h4.4l42.96,99.24h-9.26ZM478.47,10.56l-26.12,58.62,50.04.21-23.92-58.83Z"/>
      </g>
      <g>
        <path d="M548.97,0h12.97v87.46h54.1v11.77h-67.07V0Z"/>
        <path d="M631.45,0h12.97v51.37c0,18.04,6,29.69,18.01,34.97,4.11,1.78,8.97,2.66,14.58,2.66s10.38-.82,14.33-2.45c3.95-1.63,7.21-3.99,9.78-7.08,5-5.93,7.5-14.6,7.5-26V0h12.97v51.37c0,23.78-8.57,39.08-25.72,45.9-5.7,2.24-12.29,3.36-19.76,3.36s-13.98-1.09-19.52-3.26c-5.54-2.17-10.15-5.29-13.84-9.36-7.52-8.22-11.28-19.74-11.28-34.55V0Z"/>
        <path d="M774.14,49.2L735.6,0h17.03l30,38.34L812.41,0h15.49l-37.49,48.22,40.02,51.02h-17.03l-31.47-40.09-31.12,40.09h-15.49l38.83-50.04Z"/>
      </g>
      <g>
        <path d="M539.17,124.77h6.14v41.44h25.63v5.58h-31.78v-47.02Z"/>
        <path d="M592.88,124.77h6.14v47.02h-6.14v-47.02Z"/>
        <path d="M619.57,124.77h6.87l12.22,26.99c.55,1.24,1.06,2.47,1.53,3.69,1.06,2.72,1.88,4.95,2.46,6.67h.3c.31-1,.65-2,1.03-3.02l1.2-3.25c.46-1.2.98-2.41,1.56-3.65l12.42-27.43h6.51l-21.58,47.68h-2.92l-21.58-47.68Z"/>
        <path d="M687.02,124.77h6.14v47.02h-6.14v-47.02Z"/>
        <path d="M718.98,124.77h5.38l30.28,37.12v-37.12h5.48v47.02h-5.15l-30.51-37.39v37.39h-5.48v-47.02Z"/>
        <path d="M787.67,161.11c-1.04-1.76-1.85-3.67-2.42-5.74-.58-2.07-.86-4.29-.86-6.66s.3-4.63.91-6.79c.61-2.16,1.48-4.15,2.61-5.98s2.48-3.47,4.05-4.93c1.57-1.46,3.32-2.7,5.25-3.72,4.03-2.12,8.42-3.19,13.18-3.19,6.99,0,12.78,1.95,17.37,5.84l-3.45,4.71c-3.87-3.36-8.71-5.05-14.51-5.05-5.25,0-9.7,1.73-13.35,5.18-3.7,3.48-5.54,7.8-5.54,12.98,0,5.64,1.83,10.25,5.48,13.81,3.63,3.56,8.27,5.35,13.91,5.35,4.27,0,8.09-1.25,11.46-3.75.95-.71,1.76-1.45,2.42-2.22v-5.08h-16.3v-5.58h22.45v21.48h-6.14v-4.55c-2.52,2.28-5.9,3.86-10.13,4.75-1.55.31-3.35.46-5.41.46s-4.15-.26-6.28-.78-4.1-1.27-5.91-2.26c-1.82-.98-3.47-2.17-4.96-3.57s-2.76-2.97-3.8-4.73Z"/>
      </g>
      <g>
        <rect x="938.22" y="14.51" width="3.76" height="62.93"/>
        <rect x="938.23" y="94.35" width="3.76" height="62.93"/>
        <path d="M946.05,5.03c-1.47-1.84-3.72-3.02-6.26-3.02s-4.85,1.21-6.3,3.1c-1.04,1.34-1.66,3.01-1.66,4.84,0,3.83,2.75,7.04,6.38,7.78.52.1,1.04.16,1.59.16.75,0,1.48-.1,2.17-.3,3.34-.94,5.8-4.01,5.8-7.64,0-1.86-.64-3.56-1.72-4.91ZM939.79,14.12c-2.32,0-4.21-1.88-4.21-4.18s1.89-4.18,4.21-4.18,4.22,1.88,4.22,4.18-1.89,4.18-4.22,4.18Z"/>
        <path d="M942,155.4c-.7-.2-1.44-.31-2.21-.31-.53,0-1.05.06-1.55.15-3.64.72-6.41,3.94-6.41,7.79,0,2.37,1.05,4.5,2.7,5.95,1.4,1.24,3.24,1.99,5.26,1.99s3.79-.72,5.19-1.93c1.7-1.46,2.78-3.61,2.78-6.01,0-3.62-2.44-6.67-5.77-7.63ZM939.79,158.85c2.33,0,4.22,1.88,4.22,4.18s-1.89,4.18-4.22,4.18-4.21-1.88-4.21-4.18,1.89-4.18,4.21-4.18Z"/>
        <rect x="948.55" y="84.4" width="62.94" height="3.76"/>
        <rect x="868.72" y="84.42" width="62.94" height="3.76"/>
        <path d="M1022.22,81.18c-1.47-1.75-3.65-2.86-6.1-2.86-3.73,0-6.86,2.58-7.7,6.07-.16.61-.23,1.24-.23,1.9s.08,1.26.23,1.86c.83,3.5,3.97,6.1,7.71,6.1,2.51,0,4.74-1.16,6.2-2.99,1.08-1.36,1.74-3.1,1.74-4.98s-.7-3.72-1.84-5.11ZM1016.12,90.49c-2.31,0-4.18-1.89-4.18-4.21s1.87-4.21,4.18-4.21,4.18,1.89,4.18,4.21-1.88,4.21-4.18,4.21Z"/>
        <path d="M870.74,84.43c-.83-3.5-3.97-6.1-7.71-6.1-1.74,0-3.34.56-4.65,1.51-1.99,1.45-3.29,3.8-3.29,6.45s1.24,4.9,3.17,6.37c1.32,1,2.98,1.6,4.77,1.6,3.73,0,6.86-2.58,7.7-6.07.16-.61.23-1.24.23-1.9s-.08-1.26-.23-1.86ZM863.03,90.49c-2.31,0-4.18-1.89-4.18-4.21s1.87-4.21,4.18-4.21,4.18,1.89,4.18,4.21-1.88,4.21-4.18,4.21Z"/>
        <path d="M1002.7,28.05h0c-.39-.42-.78-.84-1.18-1.24h0c-15.59-15.88-37.3-25.74-61.26-25.74s-45.73,9.89-61.33,25.81h0c-.33.33-.65.67-.97,1.01-14.64,15.42-23.63,36.24-23.63,59.12,0,47.38,38.55,85.94,85.94,85.94s85.94-38.55,85.94-85.94c0-22.79-8.92-43.55-23.48-58.95ZM1015,121.09s0,0,0,0c-.55,1.23-1.16,2.44-1.78,3.63h0c-2.91,5.63-6.45,10.88-10.54,15.64-1.18,1.38-2.4,2.71-3.66,4-6.24,6.4-13.5,11.77-21.53,15.86-1.21.62-2.44,1.21-3.68,1.77-8.88,4-18.62,6.45-28.82,7.03-1.57.09-3.16.14-4.74.14-1.92,0-3.82-.07-5.71-.21-10.01-.68-19.54-3.17-28.25-7.15-1.25-.56-2.48-1.16-3.69-1.79-7.87-4.07-14.99-9.37-21.12-15.66-1.23-1.26-2.42-2.55-3.58-3.9-4.22-4.92-7.88-10.34-10.85-16.16-.63-1.22-1.23-2.46-1.78-3.71h0c-3.89-8.64-6.33-18.05-7-27.95-.13-1.87-.2-3.76-.2-5.65,0-2.41.1-4.81.32-7.17.8-9.32,3.17-18.18,6.84-26.35.55-1.26,1.16-2.5,1.77-3.72,3.04-5.95,6.78-11.5,11.12-16.5,1.98-2.28,4.09-4.46,6.3-6.51,5.4-5.02,11.49-9.32,18.09-12.74,1.2-.63,2.43-1.23,3.67-1.79,8.44-3.86,17.64-6.34,27.31-7.12,2.23-.19,4.48-.28,6.75-.28,1.95,0,3.89.07,5.8.21,9.87.69,19.24,3.13,27.86,7.02h0c1.24.55,2.46,1.14,3.66,1.77,6.76,3.46,12.99,7.83,18.5,12.95,2.24,2.08,4.37,4.27,6.38,6.59,4.19,4.87,7.83,10.23,10.81,15.99.63,1.19,1.22,2.4,1.78,3.63,3.97,8.7,6.47,18.21,7.18,28.2.14,1.93.21,3.87.21,5.82,0,1.43-.04,2.85-.1,4.26-.54,10.59-3.11,20.65-7.32,29.83Z"/>
        <path d="M950.42,85.32c-.02-.3-.06-.61-.1-.91-.11-.83-.33-1.62-.63-2.37-1-2.48-2.93-4.48-5.35-5.58-.74-.33-1.53-.58-2.36-.73-.42-.08-.85-.13-1.31-.16-.19,0-.38,0-.57,0h-.2c-.57,0-1.14.07-1.68.18-.7.12-1.36.32-2,.57-2.58,1.05-4.64,3.11-5.69,5.69-.31.76-.54,1.57-.65,2.4-.06.32-.08.63-.1.95,0,.11,0,.23,0,.34v.2c0,.78.08,1.54.25,2.27.07.32.15.63.25.93.93,2.86,3.08,5.17,5.82,6.32.68.28,1.38.5,2.12.64.5.09,1.01.15,1.55.16.1,0,.22,0,.33,0,.23,0,.48,0,.7-.03.4-.02.8-.08,1.17-.15.87-.16,1.7-.42,2.48-.79,2.59-1.2,4.6-3.46,5.48-6.21.09-.29.17-.58.23-.88.17-.73.25-1.49.25-2.27v-.15c0-.14,0-.28,0-.42ZM943.87,91.27c-1,.7-2.2,1.14-3.5,1.17-.05.02-.09.02-.14,0-.04,0-.08,0-.12,0-1.25,0-2.41-.35-3.41-.96-1.08-.66-1.95-1.62-2.5-2.76-.41-.83-.65-1.75-.66-2.71,0-.05,0-.09,0-.14,0-.3.02-.59.07-.87.12-.98.47-1.89,1-2.69.54-.86,1.3-1.59,2.18-2.1.98-.58,2.12-.91,3.33-.91h.04c.1,0,.21,0,.31.02,1.24.06,2.4.46,3.35,1.12.73.51,1.35,1.15,1.82,1.89.52.79.85,1.69.99,2.66.05.29.07.59.07.89,0,.06,0,.11,0,.17-.02.96-.24,1.86-.65,2.67-.48,1.02-1.23,1.91-2.15,2.55Z"/>
        <path d="M940.3,78.07c-.04-.21-.07-.42-.09-.63-.09-.63-.19-1.25-.3-1.88-.42-2.38-.99-4.71-1.68-7v-.02c-2.99-9.76-8.47-18.6-16.12-25.77-10.39-9.75-23.6-15.36-37.69-16.02-1.59-.08-3.19-.08-4.8-.04-.25,0-.49.07-.7.16h0c-.44.21-.79.56-.97,1.01-.09.23-.15.5-.14.77.05,1.55.16,3.09.32,4.61,1.52,14.08,7.95,27,18.37,36.8,7.52,7.06,16.54,11.95,26.29,14.35h.02c1.88.47,3.78.85,5.7,1.12.42.07.85.12,1.28.17.63.08,1.26.15,1.89.21.63.06,1.25.1,1.88.13,0-.05,0-.09,0-.14,0-.3.02-.59.07-.87.12-.98.47-1.89,1-2.69-1.37-.07-2.72-.17-4.06-.33-26.22-3.12-47.13-24.64-48.89-51.56,14.14.03,27.53,5.34,37.89,15.07,8.86,8.31,14.62,19.05,16.69,30.8.23,1.3.41,2.6.54,3.92.98-.58,2.12-.91,3.33-.91h.04c.1,0,.21,0,.31.02-.05-.42-.1-.85-.15-1.27Z"/>
        <path d="M1002.7,28.05h0c-.18-.57-.61-1.03-1.18-1.24h0c-.17-.06-.36-.08-.54-.09-1.63-.05-3.27-.04-4.88.05-14.04.7-27.25,6.29-37.61,16.01-7.97,7.49-13.62,16.83-16.49,27.11v.02c-.53,1.87-.97,3.75-1.31,5.67-.11.62-.21,1.24-.29,1.87-.04.21-.07.42-.08.63-.07.41-.12.84-.16,1.25.1,0,.21,0,.31.02,1.24.06,2.4.46,3.35,1.12.12-1.34.3-2.68.54-3.99,2.03-11.81,7.81-22.6,16.71-30.95,10.36-9.73,23.75-15.05,37.9-15.07-1.78,27.06-22.86,48.64-49.25,51.6-1.34.15-2.7.25-4.07.3.52.79.85,1.69.99,2.66.05.29.07.59.07.89,0,.06,0,.11,0,.17.63-.03,1.25-.08,1.88-.13.63-.05,1.26-.11,1.89-.19.55-.06,1.1-.13,1.64-.22,1.93-.27,3.86-.65,5.75-1.12h.02c9.74-2.41,18.74-7.29,26.25-14.35,10.41-9.78,16.82-22.66,18.36-36.7.17-1.55.28-3.13.33-4.71,0-.21-.02-.41-.08-.6Z"/>
        <path d="M940.23,92.46s-.08,0-.12,0c-1.25,0-2.41-.35-3.41-.96-.15,1.32-.35,2.62-.59,3.91-4.9,25.8-27.59,45.14-54.45,45.2.91-14.11,7.05-27.14,17.41-36.87,8.72-8.18,19.57-13.24,31.22-14.65,1.3-.17,2.6-.28,3.92-.35-.41-.83-.65-1.75-.66-2.71,0-.05,0-.09,0-.14,0-.3.02-.59.07-.87-.65.03-1.29.08-1.93.14-.63.06-1.25.12-1.88.2-.43.06-.85.11-1.29.17-3.71.54-7.34,1.42-10.85,2.64h-.02c-7.79,2.7-14.96,7.03-21.14,12.84-11.08,10.42-17.64,24.37-18.6,39.47-.05.64-.07,1.29-.09,1.93-.03,1.03.78,1.91,1.82,1.93.61.02,1.24.03,1.85.03h.05c15.15,0,29.5-5.67,40.59-16.09,7.65-7.18,13.14-16.04,16.12-25.81v-.02c.63-2.05,1.15-4.12,1.55-6.25.12-.62.23-1.24.33-1.87.07-.45.13-.89.2-1.34.02-.19.04-.37.07-.55-.05.02-.09.02-.14,0Z"/>
        <path d="M1002.68,140.37c-.98-15.06-7.52-28.98-18.59-39.37-6.19-5.81-13.39-10.15-21.18-12.84h-.02c-3.5-1.22-7.11-2.1-10.82-2.64-.54-.07-1.1-.15-1.65-.21-.62-.08-1.25-.14-1.88-.19-.65-.06-1.29-.1-1.93-.13.05.29.07.59.07.89,0,.06,0,.11,0,.17-.02.96-.24,1.86-.65,2.67,1.31.06,2.63.16,3.93.32,11.78,1.35,22.78,6.43,31.58,14.7,10.36,9.73,16.5,22.77,17.42,36.87-26.93-.07-49.66-19.49-54.48-45.36-.24-1.31-.44-2.64-.59-3.98-1,.7-2.2,1.14-3.5,1.17-.05.02-.09.02-.14,0,.02.18.04.36.08.54.05.45.11.89.19,1.34.09.62.21,1.24.32,1.85.32,1.68.71,3.35,1.17,5v.02c2.88,10.27,8.52,19.58,16.49,27.08,11.08,10.41,25.41,16.08,40.54,16.09h.05c.63,0,1.27,0,1.9-.03,1.04-.03,1.85-.9,1.82-1.93-.02-.69-.06-1.36-.1-2.04Z"/>
        <path d="M941.85,41.29l-3.52-1.32c5.5-14.69,15.45-18.62,24.23-22.09,4.72-1.86,9.17-3.62,12.53-6.89l2.62,2.69c-3.89,3.8-8.69,5.69-13.77,7.7-8.45,3.34-17.18,6.79-22.09,19.91Z"/>
        <path d="M938.95,41.29c-4.9-13.08-13.93-16.53-22.66-19.88-5.26-2.01-10.22-3.91-14.14-7.73l2.62-2.69c3.36,3.28,7.97,5.04,12.86,6.91,9.07,3.47,19.35,7.41,24.84,22.07l-3.52,1.32Z"/>
        <path d="M975.09,163.13c-3.35-3.27-7.81-5.03-12.53-6.89-8.78-3.47-18.73-7.4-24.23-22.09l3.52-1.32c4.92,13.13,13.65,16.58,22.09,19.91,5.08,2.01,9.88,3.9,13.77,7.7l-2.62,2.69Z"/>
        <path d="M904.78,163.13l-2.62-2.69c3.92-3.82,8.88-5.72,14.14-7.73,8.73-3.34,17.77-6.8,22.66-19.88l3.52,1.32c-5.49,14.66-15.77,18.6-24.84,22.07-4.88,1.87-9.5,3.64-12.86,6.91Z"/>
        <path d="M1013.31,124.84c-3.82-3.92-5.72-8.88-7.73-14.14-3.34-8.73-6.8-17.77-19.88-22.66l1.32-3.52c14.66,5.49,18.6,15.77,22.07,24.84,1.87,4.88,3.64,9.5,6.91,12.86l-2.69,2.62Z"/>
        <path d="M987.02,88.66l-1.32-3.52c13.13-4.92,16.58-13.65,19.91-22.1,2.01-5.08,3.9-9.88,7.7-13.77l2.69,2.62c-3.27,3.35-5.03,7.81-6.89,12.52-3.47,8.78-7.4,18.73-22.09,24.23Z"/>
        <path d="M866.55,124.84l-2.69-2.62c3.28-3.36,5.04-7.97,6.91-12.86,3.47-9.07,7.41-19.35,22.07-24.84l1.32,3.52c-13.08,4.9-16.53,13.93-19.88,22.66-2.01,5.26-3.91,10.22-7.73,14.14Z"/>
        <path d="M892.84,88.66c-14.69-5.5-18.62-15.45-22.09-24.23-1.86-4.72-3.62-9.17-6.89-12.52l2.69-2.62c3.79,3.89,5.69,8.69,7.7,13.77,3.34,8.45,6.79,17.18,19.91,22.1l-1.32,3.52Z"/>
      </g>
    </g>
  </g>
</svg>