<?xml version="1.0" encoding="UTF-8"?>
<svg id="Layer_2" data-name="Layer 2" xmlns="http://www.w3.org/2000/svg" viewBox="0 0 156.37 157.83">
  <g id="main_logo" data-name="main logo">
    <path id="terralux_logomark" data-name="terralux logomark" d="M105.16,6.29c-23.78,3.04-51.37,13.78-69.84,28.98-.1.08-.21.17-.31.25C21.11,47.01,6.47,62.99,1.97,81.22c-3.65,14.8-2.02,27.76,3.29,42.07,2.97,8.02,7.98,14.84,14.53,20.33l41.69-45.8-.78-39.62c-2.61-.87-4.49-3.33-4.49-6.23,0-3.63,2.94-6.57,6.57-6.57s6.57,2.94,6.57,6.57c0,2.77-1.71,5.13-4.13,6.1l.69,34.87,37.12-40.78c-.52-1.05-.82-2.23-.82-3.48,0-4.36,3.53-7.89,7.89-7.89s7.89,3.53,7.89,7.89-3.53,7.89-7.89,7.89c-.7,0-1.38-.1-2.03-.27l-55.63,61.12,39.3-5.75c.39-3.26,3.16-5.8,6.52-5.8,3.63,0,6.57,2.94,6.57,6.57s-2.94,6.57-6.57,6.57c-2.36,0-4.43-1.25-5.58-3.12l-44.83,6.56-22.81,25.06c1.46.96,2.97,1.87,4.54,2.72,31.55,17.09,69.24,3.91,92.68-25.64,15.83-19.95,24-51.47,28.21-76.01,2.74-16.03,4.84-32.3,5.77-48.55,0,0,5.46-.99-51.07,6.24Z"/>
  </g>
</svg>